<svg width="46" height="46" viewBox="0 0 46 46" fill="none" xmlns="http://www.w3.org/2000/svg">
<g filter="url(#filter0_d_154_2439)">
<rect x="5.5" y="2" width="34.999" height="35" rx="12" fill="#1A1F37"/>
</g>
<path d="M17.6468 27.9522H16.52C16.2958 27.9522 16.0808 27.8631 15.9223 27.7046C15.7638 27.5461 15.6748 27.3311 15.6748 27.107V22.036C15.6748 21.8118 15.7638 21.5968 15.9223 21.4383C16.0808 21.2798 16.2958 21.1908 16.52 21.1908H17.6468C17.871 21.1908 18.0859 21.2798 18.2444 21.4383C18.4029 21.5968 18.492 21.8118 18.492 22.036V27.107C18.492 27.3311 18.4029 27.5461 18.2444 27.7046C18.0859 27.8631 17.871 27.9522 17.6468 27.9522Z" fill="white"/>
<path d="M25.5345 27.9511H24.4076C24.1835 27.9511 23.9685 27.8621 23.81 27.7036C23.6515 27.5451 23.5625 27.3301 23.5625 27.106V18.6543C23.5625 18.4301 23.6515 18.2151 23.81 18.0566C23.9685 17.8981 24.1835 17.8091 24.4076 17.8091H25.5345C25.7587 17.8091 25.9736 17.8981 26.1321 18.0566C26.2906 18.2151 26.3797 18.4301 26.3797 18.6543V27.106C26.3797 27.3301 26.2906 27.5451 26.1321 27.7036C25.9736 27.8621 25.7587 27.9511 25.5345 27.9511Z" fill="white"/>
<path d="M29.4788 27.9516H28.352C28.1278 27.9516 27.9129 27.8626 27.7544 27.7041C27.5959 27.5456 27.5068 27.3306 27.5068 27.1065V14.7106C27.5068 14.4865 27.5959 14.2715 27.7544 14.113C27.9129 13.9545 28.1278 13.8655 28.352 13.8655H29.4788C29.703 13.8655 29.918 13.9545 30.0765 14.113C30.2349 14.2715 30.324 14.4865 30.324 14.7106V27.1065C30.324 27.3306 30.2349 27.5456 30.0765 27.7041C29.918 27.8626 29.703 27.9516 29.4788 27.9516Z" fill="white"/>
<path d="M21.5911 27.9515H20.4643C20.2401 27.9515 20.0252 27.8625 19.8667 27.704C19.7082 27.5455 19.6191 27.3305 19.6191 27.1063V11.8933C19.6191 11.6691 19.7082 11.4541 19.8667 11.2956C20.0252 11.1371 20.2401 11.0481 20.4643 11.0481H21.5911C21.8153 11.0481 22.0303 11.1371 22.1888 11.2956C22.3473 11.4541 22.4363 11.6691 22.4363 11.8933V27.1063C22.4363 27.3305 22.3473 27.5455 22.1888 27.704C22.0303 27.8625 21.8153 27.9515 21.5911 27.9515Z" fill="white"/>
<defs>
<filter id="filter0_d_154_2439" x="-4.76837e-07" y="-2.38419e-07" width="45.999" height="46" filterUnits="userSpaceOnUse" color-interpolation-filters="sRGB">
<feFlood flood-opacity="0" result="BackgroundImageFix"/>
<feColorMatrix in="SourceAlpha" type="matrix" values="0 0 0 0 0 0 0 0 0 0 0 0 0 0 0 0 0 0 127 0" result="hardAlpha"/>
<feOffset dy="3.5"/>
<feGaussianBlur stdDeviation="2.75"/>
<feColorMatrix type="matrix" values="0 0 0 0 0 0 0 0 0 0 0 0 0 0 0 0 0 0 0.02 0"/>
<feBlend mode="normal" in2="BackgroundImageFix" result="effect1_dropShadow_154_2439"/>
<feBlend mode="normal" in="SourceGraphic" in2="effect1_dropShadow_154_2439" result="shape"/>
</filter>
</defs>
</svg>
