<svg width="19" height="19" viewBox="0 0 19 19" fill="none" xmlns="http://www.w3.org/2000/svg">
<path d="M3.66244 17.4673H2.53558C2.31143 17.4673 2.09646 17.3782 1.93797 17.2197C1.77947 17.0612 1.69043 16.8463 1.69043 16.6221V11.5511C1.69043 11.3269 1.77947 11.112 1.93797 10.9535C2.09646 10.795 2.31143 10.7059 2.53558 10.7059H3.66244C3.88659 10.7059 4.10155 10.795 4.26005 10.9535C4.41854 11.112 4.50759 11.3269 4.50759 11.5511V16.6221C4.50759 16.8463 4.41854 17.0612 4.26005 17.2197C4.10155 17.3782 3.88659 17.4673 3.66244 17.4673Z" fill="white"/>
<path d="M11.5501 17.4663H10.4233C10.1991 17.4663 9.98416 17.3772 9.82566 17.2187C9.66717 17.0602 9.57812 16.8452 9.57812 16.6211V8.16939C9.57812 7.94524 9.66717 7.73026 9.82566 7.57176C9.98416 7.41326 10.1991 7.32422 10.4233 7.32422H11.5501C11.7743 7.32422 11.9892 7.41326 12.1477 7.57176C12.3062 7.73026 12.3953 7.94524 12.3953 8.16939V16.6211C12.3953 16.8452 12.3062 17.0602 12.1477 17.2187C11.9892 17.3772 11.7743 17.4663 11.5501 17.4663Z" fill="white"/>
<path d="M15.4945 17.4668H14.3676C14.1435 17.4668 13.9285 17.3777 13.77 17.2192C13.6115 17.0607 13.5225 16.8458 13.5225 16.6216V4.22579C13.5225 4.00163 13.6115 3.78666 13.77 3.62816C13.9285 3.46966 14.1435 3.38062 14.3676 3.38062H15.4945C15.7186 3.38062 15.9336 3.46966 16.0921 3.62816C16.2506 3.78666 16.3396 4.00163 16.3396 4.22579V16.6216C16.3396 16.8458 16.2506 17.0607 16.0921 17.2192C15.9336 17.3777 15.7186 17.4668 15.4945 17.4668Z" fill="white"/>
<path d="M7.60677 17.4666H6.47991C6.25577 17.4666 6.0408 17.3776 5.8823 17.2191C5.72381 17.0606 5.63477 16.8456 5.63477 16.6215V1.4084C5.63477 1.18425 5.72381 0.969277 5.8823 0.810777C6.0408 0.652277 6.25577 0.563232 6.47991 0.563232H7.60677C7.83092 0.563232 8.04589 0.652277 8.20438 0.810777C8.36288 0.969277 8.45192 1.18425 8.45192 1.4084V16.6215C8.45192 16.8456 8.36288 17.0606 8.20438 17.2191C8.04589 17.3776 7.83092 17.4666 7.60677 17.4666Z" fill="white"/>
</svg>
