<svg width="558" height="227" viewBox="0 0 558 227" fill="none" xmlns="http://www.w3.org/2000/svg">
<rect width="558" height="227" rx="18" fill="#F3F3F3"/>
<path opacity="0.7" d="M34.6719 25.4929C34.6188 25.0223 34.4001 24.6577 34.0156 24.3991C33.6312 24.1373 33.1473 24.0064 32.5639 24.0064C32.1463 24.0064 31.785 24.0727 31.4801 24.2053C31.1752 24.3345 30.9382 24.5135 30.7692 24.7422C30.6035 24.9676 30.5206 25.2244 30.5206 25.5128C30.5206 25.7547 30.5769 25.9635 30.6896 26.1392C30.8056 26.3149 30.9564 26.4624 31.142 26.5817C31.331 26.6977 31.5331 26.7955 31.7486 26.875C31.964 26.9512 32.1712 27.0142 32.37 27.0639L33.3643 27.3224C33.6892 27.402 34.0223 27.5097 34.3636 27.6456C34.705 27.7815 35.0215 27.9605 35.3132 28.1825C35.6049 28.4046 35.8402 28.6797 36.0192 29.0078C36.2015 29.3359 36.2926 29.7287 36.2926 30.1861C36.2926 30.7628 36.1435 31.2749 35.8452 31.7223C35.5502 32.1697 35.121 32.5227 34.5575 32.7812C33.9974 33.0398 33.3196 33.169 32.5241 33.169C31.7618 33.169 31.1023 33.0481 30.5455 32.8061C29.9886 32.5642 29.5528 32.2211 29.2379 31.777C28.9231 31.3295 28.7491 30.7992 28.7159 30.1861H30.2571C30.2869 30.554 30.4063 30.8606 30.6151 31.1058C30.8272 31.3478 31.0973 31.5284 31.4254 31.6477C31.7569 31.7637 32.1198 31.8217 32.5142 31.8217C32.9484 31.8217 33.3345 31.7538 33.6726 31.6179C34.014 31.4787 34.2824 31.2865 34.478 31.0412C34.6735 30.7926 34.7713 30.5026 34.7713 30.1712C34.7713 29.8696 34.6851 29.6226 34.5128 29.4304C34.3438 29.2382 34.1134 29.0791 33.8217 28.9531C33.5334 28.8272 33.2069 28.7161 32.8423 28.62L31.6392 28.2919C30.8239 28.0698 30.1776 27.7434 29.7003 27.3125C29.2263 26.8816 28.9893 26.3116 28.9893 25.6023C28.9893 25.0156 29.1484 24.5036 29.4666 24.0661C29.7848 23.6286 30.2157 23.2888 30.7592 23.0469C31.3028 22.8016 31.916 22.679 32.5987 22.679C33.2881 22.679 33.8963 22.8 34.4233 23.0419C34.9536 23.2839 35.3712 23.617 35.6761 24.0412C35.9811 24.4621 36.1402 24.946 36.1534 25.4929H34.6719ZM38.9487 35.8636C38.7266 35.8636 38.5244 35.8454 38.3422 35.8089C38.1599 35.7758 38.024 35.7393 37.9345 35.6996L38.2924 34.4815C38.5642 34.5545 38.8062 34.5859 39.0183 34.576C39.2304 34.5661 39.4177 34.4865 39.5801 34.3374C39.7458 34.1882 39.8916 33.9446 40.0176 33.6065L40.2015 33.0994L37.4075 25.3636H38.9984L40.9324 31.2898H41.0119L42.9458 25.3636H44.5417L41.3947 34.0192C41.2489 34.4169 41.0633 34.7533 40.8379 35.0284C40.6125 35.3068 40.344 35.5156 40.0325 35.6548C39.7209 35.794 39.3597 35.8636 38.9487 35.8636ZM51.661 27.228L50.3137 27.4666C50.2574 27.2943 50.1679 27.1302 50.0453 26.9744C49.926 26.8187 49.7636 26.6911 49.5581 26.5916C49.3526 26.4922 49.0957 26.4425 48.7875 26.4425C48.3665 26.4425 48.0152 26.5369 47.7335 26.7259C47.4518 26.9115 47.3109 27.1518 47.3109 27.4467C47.3109 27.7019 47.4054 27.9074 47.5943 28.0632C47.7832 28.219 48.0881 28.3466 48.5091 28.446L49.7221 28.7244C50.4248 28.8868 50.9484 29.1371 51.2931 29.4751C51.6378 29.8132 51.8102 30.2524 51.8102 30.7926C51.8102 31.25 51.6776 31.6577 51.4125 32.0156C51.1506 32.3703 50.7844 32.6487 50.3137 32.8509C49.8464 33.053 49.3045 33.1541 48.688 33.1541C47.8329 33.1541 47.1352 32.9718 46.595 32.6072C46.0547 32.2393 45.7233 31.7173 45.6007 31.0412L47.0375 30.8224C47.127 31.197 47.3109 31.4804 47.5893 31.6726C47.8677 31.8615 48.2306 31.956 48.6781 31.956C49.1653 31.956 49.5547 31.8549 49.8464 31.6527C50.1381 31.4472 50.2839 31.197 50.2839 30.902C50.2839 30.6634 50.1944 30.4628 50.0154 30.3004C49.8398 30.138 49.5697 30.0154 49.2051 29.9325L47.9125 29.6491C47.1999 29.4867 46.6729 29.2282 46.3315 28.8736C45.9934 28.5189 45.8244 28.0698 45.8244 27.5263C45.8244 27.0755 45.9503 26.6811 46.2022 26.343C46.4541 26.005 46.8021 25.7415 47.2463 25.5526C47.6904 25.3603 48.1992 25.2642 48.7725 25.2642C49.5978 25.2642 50.2475 25.4432 50.7214 25.8011C51.1954 26.1558 51.5086 26.6314 51.661 27.228ZM57.0092 25.3636V26.5568H52.8381V25.3636H57.0092ZM53.9567 23.5341H55.4432V30.7578C55.4432 31.0462 55.4863 31.2633 55.5724 31.4091C55.6586 31.5516 55.7696 31.6494 55.9055 31.7024C56.0447 31.7521 56.1955 31.777 56.358 31.777C56.4773 31.777 56.5817 31.7687 56.6712 31.7521C56.7607 31.7356 56.8303 31.7223 56.88 31.7124L57.1484 32.9403C57.0623 32.9735 56.9396 33.0066 56.7805 33.0398C56.6214 33.0762 56.4226 33.0961 56.1839 33.0994C55.7929 33.1061 55.4283 33.0365 55.0902 32.8906C54.7521 32.7448 54.4787 32.5194 54.2699 32.2145C54.0611 31.9096 53.9567 31.5268 53.9567 31.0661V23.5341ZM61.8627 33.1541C61.1104 33.1541 60.4624 32.9934 59.9189 32.6719C59.3786 32.3471 58.961 31.8913 58.666 31.3047C58.3743 30.7147 58.2285 30.0237 58.2285 29.2315C58.2285 28.4493 58.3743 27.7599 58.666 27.1634C58.961 26.5668 59.372 26.1011 59.899 25.7663C60.4293 25.4316 61.0491 25.2642 61.7583 25.2642C62.1892 25.2642 62.6068 25.3355 63.0112 25.478C63.4155 25.6205 63.7785 25.8442 64.1 26.1491C64.4215 26.4541 64.675 26.8501 64.8606 27.3374C65.0462 27.8213 65.139 28.4096 65.139 29.1023V29.6293H59.0687V28.5156H63.6824C63.6824 28.1245 63.6028 27.7782 63.4437 27.4766C63.2846 27.1716 63.0609 26.9313 62.7725 26.7557C62.4875 26.58 62.1528 26.4922 61.7683 26.4922C61.3507 26.4922 60.9861 26.5949 60.6745 26.8004C60.3663 27.0026 60.1277 27.2678 59.9586 27.5959C59.7929 27.9207 59.71 28.2737 59.71 28.6548V29.5249C59.71 30.0353 59.7995 30.4695 59.9785 30.8274C60.1608 31.1854 60.4144 31.4588 60.7392 31.6477C61.064 31.8333 61.4435 31.9261 61.8777 31.9261C62.1594 31.9261 62.4163 31.8864 62.6483 31.8068C62.8803 31.724 63.0808 31.6013 63.2498 31.4389C63.4189 31.2765 63.5481 31.076 63.6376 30.8374L65.0446 31.0909C64.9319 31.5052 64.7297 31.8681 64.438 32.1797C64.1497 32.4879 63.7868 32.7282 63.3493 32.9006C62.9151 33.0696 62.4196 33.1541 61.8627 33.1541ZM66.7884 33V25.3636H68.2152V26.6065H68.3097C68.4688 26.1856 68.7289 25.8575 69.0902 25.6222C69.4515 25.3835 69.884 25.2642 70.3878 25.2642C70.8982 25.2642 71.3258 25.3835 71.6705 25.6222C72.0185 25.8608 72.2753 26.1889 72.4411 26.6065H72.5206C72.7029 26.1989 72.9929 25.8741 73.3906 25.6321C73.7884 25.3868 74.2623 25.2642 74.8125 25.2642C75.5052 25.2642 76.0703 25.4813 76.5078 25.9155C76.9486 26.3497 77.169 27.0043 77.169 27.8793V33H75.6825V28.0185C75.6825 27.5014 75.5417 27.1269 75.2599 26.8949C74.9782 26.6629 74.6418 26.5469 74.2507 26.5469C73.7668 26.5469 73.3906 26.696 73.1222 26.9943C72.8537 27.2893 72.7195 27.6688 72.7195 28.1328V33H71.2379V27.924C71.2379 27.5097 71.1087 27.1766 70.8501 26.9247C70.5916 26.6728 70.2552 26.5469 69.8409 26.5469C69.5592 26.5469 69.299 26.6214 69.0604 26.7706C68.825 26.9164 68.6345 27.1203 68.4886 27.3821C68.3461 27.6439 68.2749 27.9472 68.2749 28.2919V33H66.7884ZM82.9858 33V22.8182H86.6151C87.4072 22.8182 88.0634 22.9624 88.5838 23.2507C89.1042 23.5391 89.4936 23.9335 89.7521 24.4339C90.0107 24.9311 90.1399 25.4912 90.1399 26.1143C90.1399 26.7408 90.009 27.3042 89.7472 27.8047C89.4886 28.3018 89.0975 28.6963 88.5739 28.9879C88.0535 29.2763 87.3989 29.4205 86.6101 29.4205H84.1143V28.1179H86.4709C86.9714 28.1179 87.3774 28.0317 87.6889 27.8594C88.0005 27.6837 88.2292 27.4451 88.375 27.1435C88.5208 26.8419 88.5938 26.4988 88.5938 26.1143C88.5938 25.7299 88.5208 25.3885 88.375 25.0902C88.2292 24.7919 87.9988 24.5582 87.6839 24.3892C87.3724 24.2202 86.9614 24.1357 86.451 24.1357H84.522V33H82.9858ZM95.017 33.1541C94.2647 33.1541 93.6167 32.9934 93.0732 32.6719C92.5329 32.3471 92.1153 31.8913 91.8203 31.3047C91.5286 30.7147 91.3828 30.0237 91.3828 29.2315C91.3828 28.4493 91.5286 27.7599 91.8203 27.1634C92.1153 26.5668 92.5263 26.1011 93.0533 25.7663C93.5836 25.4316 94.2034 25.2642 94.9126 25.2642C95.3435 25.2642 95.7611 25.3355 96.1655 25.478C96.5698 25.6205 96.9328 25.8442 97.2543 26.1491C97.5758 26.4541 97.8293 26.8501 98.0149 27.3374C98.2005 27.8213 98.2933 28.4096 98.2933 29.1023V29.6293H92.223V28.5156H96.8366C96.8366 28.1245 96.7571 27.7782 96.598 27.4766C96.4389 27.1716 96.2152 26.9313 95.9268 26.7557C95.6418 26.58 95.3071 26.4922 94.9226 26.4922C94.505 26.4922 94.1404 26.5949 93.8288 26.8004C93.5206 27.0026 93.282 27.2678 93.1129 27.5959C92.9472 27.9207 92.8643 28.2737 92.8643 28.6548V29.5249C92.8643 30.0353 92.9538 30.4695 93.1328 30.8274C93.3151 31.1854 93.5687 31.4588 93.8935 31.6477C94.2183 31.8333 94.5978 31.9261 95.032 31.9261C95.3137 31.9261 95.5705 31.8864 95.8026 31.8068C96.0346 31.724 96.2351 31.6013 96.4041 31.4389C96.5732 31.2765 96.7024 31.076 96.7919 30.8374L98.1989 31.0909C98.0862 31.5052 97.884 31.8681 97.5923 32.1797C97.304 32.4879 96.9411 32.7282 96.5036 32.9006C96.0694 33.0696 95.5739 33.1541 95.017 33.1541ZM99.9426 33V25.3636H101.379V26.5767H101.459C101.598 26.1657 101.843 25.8426 102.195 25.6072C102.549 25.3686 102.95 25.2493 103.398 25.2493C103.491 25.2493 103.6 25.2526 103.726 25.2592C103.855 25.2659 103.956 25.2741 104.029 25.2841V26.706C103.97 26.6894 103.864 26.6712 103.711 26.6513C103.559 26.6281 103.406 26.6165 103.254 26.6165C102.902 26.6165 102.589 26.6911 102.314 26.8402C102.042 26.986 101.827 27.1899 101.668 27.4517C101.509 27.7102 101.429 28.0052 101.429 28.3366V33H99.9426ZM109.401 25.3636V26.5568H105.086V25.3636H109.401ZM106.269 33V24.4787C106.269 24.0014 106.373 23.6053 106.582 23.2905C106.791 22.9723 107.068 22.7353 107.412 22.5795C107.757 22.4205 108.132 22.3409 108.536 22.3409C108.834 22.3409 109.09 22.3658 109.302 22.4155C109.514 22.4619 109.671 22.505 109.774 22.5447L109.426 23.7479C109.356 23.728 109.267 23.7048 109.157 23.6783C109.048 23.6484 108.916 23.6335 108.76 23.6335C108.398 23.6335 108.14 23.723 107.984 23.902C107.832 24.081 107.756 24.3395 107.756 24.6776V33H106.269ZM113.851 33.1541C113.135 33.1541 112.51 32.9901 111.976 32.6619C111.443 32.3338 111.028 31.8748 110.733 31.2848C110.439 30.6948 110.291 30.0054 110.291 29.2166C110.291 28.4245 110.439 27.7318 110.733 27.1385C111.028 26.5452 111.443 26.0845 111.976 25.7564C112.51 25.4283 113.135 25.2642 113.851 25.2642C114.567 25.2642 115.191 25.4283 115.725 25.7564C116.259 26.0845 116.673 26.5452 116.968 27.1385C117.263 27.7318 117.41 28.4245 117.41 29.2166C117.41 30.0054 117.263 30.6948 116.968 31.2848C116.673 31.8748 116.259 32.3338 115.725 32.6619C115.191 32.9901 114.567 33.1541 113.851 33.1541ZM113.856 31.9062C114.32 31.9062 114.704 31.7836 115.009 31.5384C115.314 31.2931 115.539 30.9666 115.685 30.5589C115.834 30.1513 115.909 29.7022 115.909 29.2116C115.909 28.7244 115.834 28.277 115.685 27.8693C115.539 27.4583 115.314 27.1286 115.009 26.88C114.704 26.6314 114.32 26.5071 113.856 26.5071C113.388 26.5071 113.001 26.6314 112.692 26.88C112.387 27.1286 112.16 27.4583 112.011 27.8693C111.865 28.277 111.792 28.7244 111.792 29.2116C111.792 29.7022 111.865 30.1513 112.011 30.5589C112.16 30.9666 112.387 31.2931 112.692 31.5384C113.001 31.7836 113.388 31.9062 113.856 31.9062ZM119.07 33V25.3636H120.506V26.5767H120.586C120.725 26.1657 120.97 25.8426 121.322 25.6072C121.676 25.3686 122.077 25.2493 122.525 25.2493C122.618 25.2493 122.727 25.2526 122.853 25.2592C122.982 25.2659 123.083 25.2741 123.156 25.2841V26.706C123.097 26.6894 122.991 26.6712 122.838 26.6513C122.686 26.6281 122.533 26.6165 122.381 26.6165C122.029 26.6165 121.716 26.6911 121.441 26.8402C121.169 26.986 120.954 27.1899 120.795 27.4517C120.636 27.7102 120.556 28.0052 120.556 28.3366V33H119.07ZM124.443 33V25.3636H125.869V26.6065H125.964C126.123 26.1856 126.383 25.8575 126.744 25.6222C127.106 25.3835 127.538 25.2642 128.042 25.2642C128.552 25.2642 128.98 25.3835 129.325 25.6222C129.673 25.8608 129.93 26.1889 130.095 26.6065H130.175C130.357 26.1989 130.647 25.8741 131.045 25.6321C131.443 25.3868 131.917 25.2642 132.467 25.2642C133.16 25.2642 133.725 25.4813 134.162 25.9155C134.603 26.3497 134.823 27.0043 134.823 27.8793V33H133.337V28.0185C133.337 27.5014 133.196 27.1269 132.914 26.8949C132.633 26.6629 132.296 26.5469 131.905 26.5469C131.421 26.5469 131.045 26.696 130.776 26.9943C130.508 27.2893 130.374 27.6688 130.374 28.1328V33H128.892V27.924C128.892 27.5097 128.763 27.1766 128.504 26.9247C128.246 26.6728 127.91 26.5469 127.495 26.5469C127.213 26.5469 126.953 26.6214 126.715 26.7706C126.479 26.9164 126.289 27.1203 126.143 27.3821C126 27.6439 125.929 27.9472 125.929 28.2919V33H124.443ZM139.038 33.169C138.554 33.169 138.117 33.0795 137.725 32.9006C137.334 32.7183 137.025 32.4548 136.796 32.1101C136.57 31.7654 136.458 31.3428 136.458 30.8423C136.458 30.4115 136.541 30.0568 136.706 29.7784C136.872 29.5 137.096 29.2796 137.377 29.1172C137.659 28.9548 137.974 28.8321 138.322 28.7493C138.67 28.6664 139.025 28.6035 139.386 28.5604C139.843 28.5073 140.215 28.4643 140.5 28.4311C140.785 28.3946 140.992 28.3366 141.121 28.2571C141.25 28.1776 141.315 28.0483 141.315 27.8693V27.8345C141.315 27.4003 141.192 27.0639 140.947 26.8253C140.705 26.5866 140.344 26.4673 139.863 26.4673C139.363 26.4673 138.968 26.5784 138.68 26.8004C138.395 27.0192 138.198 27.2628 138.088 27.5312L136.691 27.2131C136.857 26.7491 137.099 26.3745 137.417 26.0895C137.739 25.8011 138.108 25.5923 138.526 25.4631C138.944 25.3305 139.383 25.2642 139.843 25.2642C140.148 25.2642 140.471 25.3007 140.813 25.3736C141.158 25.4432 141.479 25.5724 141.777 25.7614C142.079 25.9503 142.326 26.2204 142.518 26.5717C142.71 26.9197 142.806 27.3722 142.806 27.929V33H141.355V31.956H141.295C141.199 32.1482 141.055 32.3371 140.863 32.5227C140.67 32.7083 140.423 32.8625 140.122 32.9851C139.82 33.1077 139.459 33.169 139.038 33.169ZM139.361 31.9759C139.772 31.9759 140.123 31.8946 140.415 31.7322C140.71 31.5698 140.934 31.3577 141.086 31.0959C141.242 30.8307 141.32 30.5473 141.32 30.2457V29.2614C141.267 29.3144 141.164 29.3641 141.012 29.4105C140.863 29.4536 140.692 29.4917 140.5 29.5249C140.307 29.5547 140.12 29.5829 139.938 29.6094C139.756 29.6326 139.603 29.6525 139.48 29.669C139.192 29.7055 138.929 29.7668 138.69 29.853C138.455 29.9392 138.266 30.0634 138.123 30.2259C137.984 30.3849 137.914 30.5971 137.914 30.8622C137.914 31.2301 138.05 31.5085 138.322 31.6974C138.594 31.883 138.94 31.9759 139.361 31.9759ZM146.273 28.4659V33H144.786V25.3636H146.213V26.6065H146.308C146.483 26.2022 146.758 25.8774 147.133 25.6321C147.511 25.3868 147.986 25.2642 148.56 25.2642C149.08 25.2642 149.536 25.3736 149.927 25.5923C150.318 25.8078 150.621 26.1293 150.837 26.5568C151.052 26.9844 151.16 27.513 151.16 28.1428V33H149.673V28.3217C149.673 27.7682 149.529 27.3357 149.241 27.0241C148.953 26.7093 148.557 26.5518 148.053 26.5518C147.708 26.5518 147.401 26.6264 147.133 26.7756C146.868 26.9247 146.657 27.1435 146.502 27.4318C146.349 27.7169 146.273 28.0616 146.273 28.4659ZM156.37 33.1541C155.631 33.1541 154.995 32.9867 154.461 32.652C153.931 32.3139 153.523 31.8482 153.238 31.255C152.953 30.6617 152.811 29.9822 152.811 29.2166C152.811 28.4411 152.956 27.7566 153.248 27.1634C153.54 26.5668 153.951 26.1011 154.481 25.7663C155.011 25.4316 155.636 25.2642 156.355 25.2642C156.935 25.2642 157.452 25.3719 157.906 25.5874C158.36 25.7995 158.727 26.0978 159.005 26.4822C159.287 26.8667 159.454 27.3158 159.507 27.8295H158.061C157.981 27.4716 157.799 27.1634 157.514 26.9048C157.232 26.6463 156.854 26.517 156.38 26.517C155.966 26.517 155.603 26.6264 155.291 26.8452C154.983 27.0606 154.743 27.3688 154.57 27.7699C154.398 28.1676 154.312 28.6383 154.312 29.1818C154.312 29.7386 154.396 30.2192 154.566 30.6236C154.735 31.0279 154.973 31.3411 155.281 31.5632C155.593 31.7853 155.959 31.8963 156.38 31.8963C156.662 31.8963 156.917 31.8449 157.146 31.7422C157.378 31.6361 157.572 31.4853 157.727 31.2898C157.887 31.0942 157.998 30.8589 158.061 30.5838H159.507C159.454 31.0777 159.294 31.5185 159.025 31.9062C158.757 32.294 158.397 32.599 157.946 32.821C157.499 33.0431 156.973 33.1541 156.37 33.1541ZM164.388 33.1541C163.636 33.1541 162.988 32.9934 162.444 32.6719C161.904 32.3471 161.486 31.8913 161.191 31.3047C160.9 30.7147 160.754 30.0237 160.754 29.2315C160.754 28.4493 160.9 27.7599 161.191 27.1634C161.486 26.5668 161.897 26.1011 162.424 25.7663C162.955 25.4316 163.574 25.2642 164.284 25.2642C164.715 25.2642 165.132 25.3355 165.537 25.478C165.941 25.6205 166.304 25.8442 166.625 26.1491C166.947 26.4541 167.2 26.8501 167.386 27.3374C167.572 27.8213 167.664 28.4096 167.664 29.1023V29.6293H161.594V28.5156H166.208C166.208 28.1245 166.128 27.7782 165.969 27.4766C165.81 27.1716 165.586 26.9313 165.298 26.7557C165.013 26.58 164.678 26.4922 164.294 26.4922C163.876 26.4922 163.511 26.5949 163.2 26.8004C162.892 27.0026 162.653 27.2678 162.484 27.5959C162.318 27.9207 162.235 28.2737 162.235 28.6548V29.5249C162.235 30.0353 162.325 30.4695 162.504 30.8274C162.686 31.1854 162.94 31.4588 163.265 31.6477C163.589 31.8333 163.969 31.9261 164.403 31.9261C164.685 31.9261 164.942 31.8864 165.174 31.8068C165.406 31.724 165.606 31.6013 165.775 31.4389C165.944 31.2765 166.074 31.076 166.163 30.8374L167.57 31.0909C167.457 31.5052 167.255 31.8681 166.963 32.1797C166.675 32.4879 166.312 32.7282 165.875 32.9006C165.44 33.0696 164.945 33.1541 164.388 33.1541ZM172.636 24.1406V22.8182H180.516V24.1406H177.339V33H175.808V24.1406H172.636ZM181.345 33V25.3636H182.782V26.5767H182.861C183.001 26.1657 183.246 25.8426 183.597 25.6072C183.952 25.3686 184.353 25.2493 184.8 25.2493C184.893 25.2493 185.002 25.2526 185.128 25.2592C185.258 25.2659 185.359 25.2741 185.432 25.2841V26.706C185.372 26.6894 185.266 26.6712 185.113 26.6513C184.961 26.6281 184.809 26.6165 184.656 26.6165C184.305 26.6165 183.992 26.6911 183.716 26.8402C183.445 26.986 183.229 27.1899 183.07 27.4517C182.911 27.7102 182.831 28.0052 182.831 28.3366V33H181.345ZM189.736 33.1541C188.983 33.1541 188.335 32.9934 187.792 32.6719C187.252 32.3471 186.834 31.8913 186.539 31.3047C186.247 30.7147 186.102 30.0237 186.102 29.2315C186.102 28.4493 186.247 27.7599 186.539 27.1634C186.834 26.5668 187.245 26.1011 187.772 25.7663C188.302 25.4316 188.922 25.2642 189.631 25.2642C190.062 25.2642 190.48 25.3355 190.884 25.478C191.289 25.6205 191.652 25.8442 191.973 26.1491C192.295 26.4541 192.548 26.8501 192.734 27.3374C192.919 27.8213 193.012 28.4096 193.012 29.1023V29.6293H186.942V28.5156H191.555C191.555 28.1245 191.476 27.7782 191.317 27.4766C191.158 27.1716 190.934 26.9313 190.646 26.7557C190.361 26.58 190.026 26.4922 189.641 26.4922C189.224 26.4922 188.859 26.5949 188.548 26.8004C188.239 27.0026 188.001 27.2678 187.832 27.5959C187.666 27.9207 187.583 28.2737 187.583 28.6548V29.5249C187.583 30.0353 187.673 30.4695 187.852 30.8274C188.034 31.1854 188.287 31.4588 188.612 31.6477C188.937 31.8333 189.317 31.9261 189.751 31.9261C190.032 31.9261 190.289 31.8864 190.521 31.8068C190.753 31.724 190.954 31.6013 191.123 31.4389C191.292 31.2765 191.421 31.076 191.511 30.8374L192.918 31.0909C192.805 31.5052 192.603 31.8681 192.311 32.1797C192.023 32.4879 191.66 32.7282 191.222 32.9006C190.788 33.0696 190.293 33.1541 189.736 33.1541ZM196.148 28.4659V33H194.661V25.3636H196.088V26.6065H196.183C196.358 26.2022 196.633 25.8774 197.008 25.6321C197.386 25.3868 197.861 25.2642 198.435 25.2642C198.955 25.2642 199.411 25.3736 199.802 25.5923C200.193 25.8078 200.496 26.1293 200.712 26.5568C200.927 26.9844 201.035 27.513 201.035 28.1428V33H199.548V28.3217C199.548 27.7682 199.404 27.3357 199.116 27.0241C198.828 26.7093 198.432 26.5518 197.928 26.5518C197.583 26.5518 197.276 26.6264 197.008 26.7756C196.743 26.9247 196.532 27.1435 196.377 27.4318C196.224 27.7169 196.148 28.0616 196.148 28.4659ZM205.887 33.1491C205.271 33.1491 204.721 32.9917 204.237 32.6768C203.756 32.3587 203.378 31.9062 203.103 31.3196C202.831 30.7296 202.695 30.022 202.695 29.1967C202.695 28.3714 202.833 27.6655 203.108 27.0788C203.387 26.4922 203.768 26.0431 204.252 25.7315C204.735 25.42 205.284 25.2642 205.897 25.2642C206.371 25.2642 206.752 25.3438 207.041 25.5028C207.332 25.6586 207.558 25.8409 207.717 26.0497C207.879 26.2585 208.005 26.4425 208.095 26.6016H208.184V22.8182H209.671V33H208.219V31.8118H208.095C208.005 31.9742 207.876 32.1598 207.707 32.3686C207.541 32.5774 207.312 32.7597 207.021 32.9155C206.729 33.0713 206.351 33.1491 205.887 33.1491ZM206.215 31.8814C206.643 31.8814 207.004 31.7687 207.299 31.5433C207.597 31.3146 207.823 30.9981 207.975 30.5938C208.131 30.1894 208.209 29.7187 208.209 29.1818C208.209 28.6515 208.133 28.1875 207.98 27.7898C207.828 27.392 207.604 27.0821 207.309 26.8601C207.014 26.638 206.65 26.527 206.215 26.527C205.768 26.527 205.395 26.643 205.097 26.875C204.798 27.107 204.573 27.4235 204.421 27.8246C204.271 28.2256 204.197 28.678 204.197 29.1818C204.197 29.6922 204.273 30.1513 204.426 30.5589C204.578 30.9666 204.803 31.2898 205.102 31.5284C205.403 31.7637 205.775 31.8814 206.215 31.8814ZM217.515 27.228L216.167 27.4666C216.111 27.2943 216.021 27.1302 215.899 26.9744C215.779 26.8187 215.617 26.6911 215.412 26.5916C215.206 26.4922 214.949 26.4425 214.641 26.4425C214.22 26.4425 213.869 26.5369 213.587 26.7259C213.305 26.9115 213.164 27.1518 213.164 27.4467C213.164 27.7019 213.259 27.9074 213.448 28.0632C213.637 28.219 213.942 28.3466 214.363 28.446L215.576 28.7244C216.278 28.8868 216.802 29.1371 217.147 29.4751C217.491 29.8132 217.664 30.2524 217.664 30.7926C217.664 31.25 217.531 31.6577 217.266 32.0156C217.004 32.3703 216.638 32.6487 216.167 32.8509C215.7 33.053 215.158 33.1541 214.542 33.1541C213.686 33.1541 212.989 32.9718 212.449 32.6072C211.908 32.2393 211.577 31.7173 211.454 31.0412L212.891 30.8224C212.98 31.197 213.164 31.4804 213.443 31.6726C213.721 31.8615 214.084 31.956 214.532 31.956C215.019 31.956 215.408 31.8549 215.7 31.6527C215.992 31.4472 216.137 31.197 216.137 30.902C216.137 30.6634 216.048 30.4628 215.869 30.3004C215.693 30.138 215.423 30.0154 215.059 29.9325L213.766 29.6491C213.053 29.4867 212.526 29.2282 212.185 28.8736C211.847 28.5189 211.678 28.0698 211.678 27.5263C211.678 27.0755 211.804 26.6811 212.056 26.343C212.308 26.005 212.656 25.7415 213.1 25.5526C213.544 25.3603 214.053 25.2642 214.626 25.2642C215.451 25.2642 216.101 25.4432 216.575 25.8011C217.049 26.1558 217.362 26.6314 217.515 27.228Z" fill="#030229"/>
<path d="M521.982 206.11V210.807H523.369C524.079 210.807 524.574 210.457 524.854 209.758C525.007 209.373 525.083 208.916 525.083 208.385C525.083 207.653 524.967 207.092 524.736 206.701C524.508 206.307 524.053 206.11 523.369 206.11H521.982ZM523.623 204.86C524.069 204.867 524.44 204.919 524.736 205.016C525.241 205.182 525.649 205.487 525.962 205.929C526.213 206.288 526.383 206.675 526.475 207.092C526.566 207.508 526.611 207.905 526.611 208.283C526.611 209.24 526.419 210.051 526.035 210.715C525.514 211.61 524.71 212.057 523.623 212.057H520.522V204.86H523.623ZM529.736 207.741C529.414 207.741 529.163 207.842 528.984 208.044C528.809 208.246 528.698 208.519 528.652 208.864H530.815C530.793 208.496 530.68 208.218 530.479 208.029C530.28 207.837 530.033 207.741 529.736 207.741ZM529.736 206.594C530.179 206.594 530.578 206.677 530.933 206.843C531.287 207.009 531.58 207.271 531.812 207.629C532.02 207.944 532.155 208.311 532.217 208.727C532.253 208.971 532.267 209.323 532.261 209.782H528.618C528.638 210.316 528.805 210.69 529.121 210.905C529.313 211.038 529.544 211.105 529.814 211.105C530.101 211.105 530.334 211.024 530.513 210.861C530.61 210.773 530.697 210.651 530.771 210.495H532.192C532.157 210.811 531.992 211.131 531.699 211.457C531.243 211.974 530.605 212.233 529.785 212.233C529.108 212.233 528.511 212.015 527.993 211.579C527.476 211.143 527.217 210.433 527.217 209.45C527.217 208.529 527.45 207.822 527.915 207.331C528.384 206.839 528.991 206.594 529.736 206.594ZM536.382 208.644C536.356 208.446 536.289 208.267 536.182 208.107C536.025 207.892 535.783 207.785 535.454 207.785C534.985 207.785 534.665 208.018 534.492 208.483C534.401 208.731 534.355 209.059 534.355 209.469C534.355 209.86 534.401 210.174 534.492 210.412C534.658 210.855 534.971 211.076 535.43 211.076C535.755 211.076 535.986 210.988 536.123 210.812C536.26 210.636 536.343 210.409 536.372 210.129H537.793C537.76 210.552 537.607 210.952 537.334 211.33C536.898 211.939 536.252 212.243 535.396 212.243C534.539 212.243 533.91 211.989 533.506 211.481C533.102 210.973 532.9 210.314 532.9 209.504C532.9 208.589 533.123 207.878 533.569 207.37C534.015 206.862 534.631 206.608 535.415 206.608C536.082 206.608 536.628 206.758 537.051 207.057C537.477 207.357 537.729 207.886 537.808 208.644H536.382Z" fill="#8C8C8C"/>
<path d="M478.434 204.86H480.011L482.877 209.885V204.86H484.278V212.057H482.774L479.835 206.945V212.057H478.434V204.86ZM487.96 211.076C488.367 211.076 488.679 210.931 488.897 210.641C489.116 210.352 489.225 209.94 489.225 209.406C489.225 208.872 489.116 208.462 488.897 208.176C488.679 207.886 488.367 207.741 487.96 207.741C487.553 207.741 487.239 207.886 487.018 208.176C486.799 208.462 486.69 208.872 486.69 209.406C486.69 209.94 486.799 210.352 487.018 210.641C487.239 210.931 487.553 211.076 487.96 211.076ZM490.685 209.406C490.685 210.187 490.46 210.856 490.011 211.413C489.562 211.966 488.88 212.243 487.965 212.243C487.05 212.243 486.368 211.966 485.919 211.413C485.47 210.856 485.245 210.187 485.245 209.406C485.245 208.638 485.47 207.972 485.919 207.409C486.368 206.846 487.05 206.564 487.965 206.564C488.88 206.564 489.562 206.846 490.011 207.409C490.46 207.972 490.685 208.638 490.685 209.406ZM494.967 206.735H496.461L494.542 212.057H493.072L491.163 206.735H492.726L493.834 210.661L494.967 206.735Z" fill="#8C8C8C"/>
<path d="M440.685 210.983C441.28 210.983 441.752 210.763 442.101 210.324C442.452 209.885 442.628 209.26 442.628 208.449C442.628 207.642 442.452 207.018 442.101 206.579C441.752 206.136 441.28 205.915 440.685 205.915C440.089 205.915 439.614 206.135 439.259 206.574C438.904 207.013 438.727 207.638 438.727 208.449C438.727 209.26 438.904 209.885 439.259 210.324C439.614 210.763 440.089 210.983 440.685 210.983ZM444.132 208.449C444.132 209.741 443.769 210.731 443.043 211.418C442.499 211.978 441.713 212.258 440.685 212.258C439.656 212.258 438.87 211.978 438.326 211.418C437.597 210.731 437.232 209.741 437.232 208.449C437.232 207.131 437.597 206.141 438.326 205.48C438.87 204.92 439.656 204.64 440.685 204.64C441.713 204.64 442.499 204.92 443.043 205.48C443.769 206.141 444.132 207.131 444.132 208.449ZM448.351 208.644C448.325 208.446 448.258 208.267 448.15 208.107C447.994 207.892 447.752 207.785 447.423 207.785C446.954 207.785 446.633 208.018 446.461 208.483C446.37 208.731 446.324 209.059 446.324 209.469C446.324 209.86 446.37 210.174 446.461 210.412C446.627 210.855 446.939 211.076 447.398 211.076C447.724 211.076 447.955 210.988 448.092 210.812C448.229 210.636 448.312 210.409 448.341 210.129H449.762C449.729 210.552 449.576 210.952 449.303 211.33C448.867 211.939 448.22 212.243 447.364 212.243C446.508 212.243 445.878 211.989 445.475 211.481C445.071 210.973 444.869 210.314 444.869 209.504C444.869 208.589 445.092 207.878 445.538 207.37C445.984 206.862 446.599 206.608 447.384 206.608C448.051 206.608 448.596 206.758 449.02 207.057C449.446 207.357 449.698 207.886 449.776 208.644H448.351ZM450.191 207.775V206.784H450.934V205.3H452.311V206.784H453.175V207.775H452.311V210.588C452.311 210.806 452.338 210.942 452.394 210.998C452.449 211.05 452.618 211.076 452.901 211.076C452.944 211.076 452.988 211.076 453.033 211.076C453.082 211.073 453.129 211.069 453.175 211.066V212.106L452.516 212.131C451.858 212.153 451.409 212.039 451.168 211.789C451.012 211.629 450.934 211.384 450.934 211.052V207.775H450.191Z" fill="#8C8C8C"/>
<path d="M396.802 209.836C396.847 210.164 396.937 210.41 397.07 210.573C397.314 210.869 397.733 211.017 398.325 211.017C398.68 211.017 398.968 210.978 399.189 210.9C399.609 210.75 399.819 210.472 399.819 210.065C399.819 209.828 399.715 209.644 399.507 209.513C399.299 209.386 398.971 209.274 398.525 209.177L397.764 209.006C397.015 208.836 396.497 208.652 396.211 208.454C395.726 208.122 395.483 207.603 395.483 206.896C395.483 206.252 395.718 205.716 396.187 205.29C396.655 204.863 397.344 204.65 398.252 204.65C399.01 204.65 399.657 204.852 400.19 205.256C400.728 205.656 401.009 206.239 401.035 207.004H399.59C399.564 206.571 399.375 206.263 399.023 206.081C398.789 205.96 398.498 205.9 398.149 205.9C397.762 205.9 397.453 205.978 397.222 206.135C396.991 206.291 396.875 206.509 396.875 206.789C396.875 207.046 396.989 207.238 397.217 207.365C397.363 207.45 397.676 207.549 398.154 207.663L399.395 207.961C399.938 208.091 400.348 208.265 400.625 208.483C401.055 208.822 401.27 209.312 401.27 209.953C401.27 210.61 401.017 211.157 400.513 211.594C400.011 212.026 399.302 212.243 398.384 212.243C397.446 212.243 396.709 212.03 396.172 211.603C395.635 211.174 395.366 210.584 395.366 209.836H396.802ZM404.37 207.741C404.048 207.741 403.797 207.842 403.618 208.044C403.442 208.246 403.332 208.519 403.286 208.864H405.449C405.426 208.496 405.314 208.218 405.112 208.029C404.914 207.837 404.666 207.741 404.37 207.741ZM404.37 206.594C404.813 206.594 405.212 206.677 405.566 206.843C405.921 207.009 406.214 207.271 406.445 207.629C406.654 207.944 406.789 208.311 406.851 208.727C406.886 208.971 406.901 209.323 406.895 209.782H403.252C403.271 210.316 403.439 210.69 403.755 210.905C403.947 211.038 404.178 211.105 404.448 211.105C404.735 211.105 404.967 211.024 405.146 210.861C405.244 210.773 405.33 210.651 405.405 210.495H406.826C406.79 210.811 406.626 211.131 406.333 211.457C405.877 211.974 405.239 212.233 404.419 212.233C403.742 212.233 403.145 212.015 402.627 211.579C402.109 211.143 401.851 210.433 401.851 209.45C401.851 208.529 402.083 207.822 402.549 207.331C403.018 206.839 403.625 206.594 404.37 206.594ZM411.504 209.396C411.504 208.986 411.41 208.623 411.221 208.307C411.035 207.992 410.732 207.834 410.312 207.834C409.808 207.834 409.461 208.073 409.272 208.552C409.175 208.805 409.126 209.128 409.126 209.518C409.126 210.137 409.29 210.571 409.619 210.822C409.814 210.969 410.046 211.042 410.312 211.042C410.7 211.042 410.994 210.892 411.196 210.593C411.401 210.293 411.504 209.894 411.504 209.396ZM410.713 206.618C411.335 206.618 411.86 206.847 412.29 207.306C412.723 207.765 412.939 208.439 412.939 209.328C412.939 210.265 412.728 210.98 412.305 211.471C411.885 211.963 411.343 212.209 410.679 212.209C410.256 212.209 409.904 212.103 409.624 211.891C409.471 211.774 409.321 211.603 409.175 211.379V214.152H407.798V206.735H409.131V207.521C409.281 207.29 409.44 207.108 409.609 206.974C409.919 206.737 410.286 206.618 410.713 206.618Z" fill="#8C8C8C"/>
<path d="M355.34 209.338H357.166L356.268 206.506L355.34 209.338ZM355.433 204.86H357.132L359.681 212.057H358.05L357.586 210.578H354.935L354.437 212.057H352.864L355.433 204.86ZM361.873 206.735V209.943C361.873 210.246 361.909 210.474 361.98 210.627C362.107 210.897 362.356 211.032 362.728 211.032C363.203 211.032 363.528 210.84 363.704 210.456C363.795 210.247 363.841 209.972 363.841 209.631V206.735H365.252V212.057H363.899V211.305C363.886 211.322 363.854 211.371 363.802 211.452C363.75 211.533 363.688 211.605 363.616 211.667C363.398 211.862 363.187 211.996 362.981 212.067C362.78 212.139 362.542 212.175 362.269 212.175C361.481 212.175 360.95 211.891 360.677 211.325C360.524 211.012 360.447 210.552 360.447 209.943V206.735H361.873ZM368.885 210.915C369.21 210.915 369.485 210.793 369.71 210.549C369.935 210.301 370.047 209.909 370.047 209.372C370.047 208.867 369.939 208.483 369.725 208.219C369.513 207.956 369.228 207.824 368.87 207.824C368.382 207.824 368.045 208.053 367.859 208.512C367.762 208.757 367.713 209.058 367.713 209.416C367.713 209.725 367.765 210 367.869 210.241C368.058 210.69 368.396 210.915 368.885 210.915ZM368.538 206.608C368.805 206.608 369.038 206.649 369.236 206.73C369.575 206.87 369.848 207.127 370.057 207.502V206.735H371.409V211.784C371.409 212.471 371.294 212.988 371.062 213.337C370.665 213.936 369.904 214.235 368.777 214.235C368.097 214.235 367.542 214.102 367.112 213.835C366.683 213.568 366.445 213.169 366.399 212.638H367.913C367.952 212.801 368.016 212.918 368.104 212.99C368.253 213.117 368.506 213.18 368.86 213.18C369.362 213.18 369.697 213.013 369.866 212.677C369.977 212.463 370.032 212.101 370.032 211.594V211.252C369.899 211.48 369.756 211.65 369.603 211.764C369.326 211.976 368.966 212.082 368.523 212.082C367.84 212.082 367.293 211.843 366.883 211.364C366.476 210.882 366.272 210.231 366.272 209.411C366.272 208.62 366.469 207.956 366.863 207.419C367.257 206.878 367.815 206.608 368.538 206.608Z" fill="#8C8C8C"/>
<path d="M314.677 209.328V209.494C314.69 210.051 314.75 210.443 314.857 210.671C314.968 210.895 315.202 211.008 315.561 211.008C315.915 211.008 316.15 210.884 316.264 210.636C316.332 210.49 316.366 210.243 316.366 209.894V204.86H317.87V209.87C317.87 210.482 317.764 210.967 317.553 211.325C317.195 211.93 316.549 212.233 315.614 212.233C314.68 212.233 314.053 211.989 313.734 211.501C313.415 211.009 313.256 210.34 313.256 209.494V209.328H314.677ZM320.639 206.735V209.943C320.639 210.246 320.674 210.474 320.746 210.627C320.873 210.897 321.122 211.032 321.493 211.032C321.968 211.032 322.294 210.84 322.47 210.456C322.561 210.247 322.606 209.972 322.606 209.631V206.735H324.018V212.057H322.665V211.305C322.652 211.322 322.619 211.371 322.567 211.452C322.515 211.533 322.453 211.605 322.382 211.667C322.164 211.862 321.952 211.996 321.747 212.067C321.545 212.139 321.308 212.175 321.034 212.175C320.246 212.175 319.716 211.891 319.442 211.325C319.289 211.012 319.213 210.552 319.213 209.943V206.735H320.639ZM326.786 212.057H325.395V204.86H326.786V212.057Z" fill="#8C8C8C"/>
<path d="M273.165 209.328V209.494C273.178 210.051 273.238 210.443 273.346 210.671C273.456 210.895 273.691 211.008 274.049 211.008C274.404 211.008 274.638 210.884 274.752 210.636C274.82 210.49 274.854 210.243 274.854 209.894V204.86H276.358V209.87C276.358 210.482 276.253 210.967 276.041 211.325C275.683 211.93 275.037 212.233 274.103 212.233C273.168 212.233 272.542 211.989 272.223 211.501C271.904 211.009 271.744 210.34 271.744 209.494V209.328H273.165ZM279.127 206.735V209.943C279.127 210.246 279.163 210.474 279.234 210.627C279.361 210.897 279.61 211.032 279.981 211.032C280.457 211.032 280.782 210.84 280.958 210.456C281.049 210.247 281.095 209.972 281.095 209.631V206.735H282.506V212.057H281.153V211.305C281.14 211.322 281.108 211.371 281.056 211.452C281.004 211.533 280.942 211.605 280.87 211.667C280.652 211.862 280.44 211.996 280.235 212.067C280.034 212.139 279.796 212.175 279.522 212.175C278.735 212.175 278.204 211.891 277.931 211.325C277.778 211.012 277.701 210.552 277.701 209.943V206.735H279.127ZM286.803 206.608C287.353 206.608 287.802 206.753 288.15 207.043C288.502 207.329 288.678 207.806 288.678 208.473V212.057H287.252V208.82C287.252 208.54 287.215 208.325 287.14 208.176C287.003 207.902 286.743 207.765 286.358 207.765C285.886 207.765 285.562 207.966 285.387 208.366C285.296 208.578 285.25 208.848 285.25 209.177V212.057H283.863V206.745H285.206V207.521C285.385 207.248 285.554 207.051 285.714 206.93C286 206.716 286.363 206.608 286.803 206.608Z" fill="#8C8C8C"/>
<path d="M234.716 204.86H236.879V212.057H235.478V207.189C235.478 207.049 235.479 206.854 235.482 206.603C235.486 206.349 235.487 206.154 235.487 206.017L234.125 212.057H232.665L231.312 206.017C231.312 206.154 231.314 206.349 231.317 206.603C231.321 206.854 231.322 207.049 231.322 207.189V212.057H229.921V204.86H232.108L233.417 210.519L234.716 204.86ZM241.098 209.469C241.01 209.525 240.92 209.57 240.829 209.606C240.741 209.639 240.619 209.67 240.463 209.699L240.15 209.758C239.857 209.81 239.647 209.873 239.521 209.948C239.306 210.075 239.198 210.272 239.198 210.539C239.198 210.776 239.263 210.949 239.394 211.056C239.527 211.161 239.688 211.213 239.877 211.213C240.176 211.213 240.451 211.125 240.702 210.949C240.956 210.773 241.088 210.453 241.098 209.987V209.469ZM240.253 208.82C240.51 208.788 240.694 208.747 240.805 208.698C241.003 208.613 241.103 208.482 241.103 208.302C241.103 208.084 241.026 207.935 240.873 207.853C240.723 207.769 240.502 207.726 240.209 207.726C239.88 207.726 239.647 207.808 239.511 207.97C239.413 208.091 239.348 208.254 239.315 208.459H237.973C238.002 207.993 238.132 207.611 238.363 207.311C238.731 206.843 239.363 206.608 240.258 206.608C240.84 206.608 241.358 206.724 241.811 206.955C242.263 207.186 242.489 207.622 242.489 208.263V210.705C242.489 210.874 242.493 211.079 242.499 211.32C242.509 211.502 242.536 211.626 242.582 211.691C242.628 211.756 242.696 211.81 242.787 211.852V212.057H241.273C241.231 211.95 241.202 211.849 241.186 211.755C241.169 211.66 241.156 211.553 241.146 211.432C240.954 211.641 240.733 211.818 240.482 211.965C240.183 212.137 239.844 212.223 239.467 212.223C238.985 212.223 238.586 212.087 238.271 211.813C237.958 211.537 237.802 211.146 237.802 210.641C237.802 209.987 238.054 209.513 238.559 209.22C238.835 209.061 239.242 208.947 239.779 208.879L240.253 208.82ZM243.944 213.078L244.12 213.088C244.257 213.094 244.387 213.089 244.511 213.073C244.634 213.057 244.739 213.019 244.823 212.961C244.905 212.905 244.979 212.79 245.048 212.614C245.119 212.438 245.149 212.331 245.136 212.292L243.183 206.735H244.73L245.893 210.661L246.991 206.735H248.471L246.645 211.969C246.293 212.979 246.015 213.604 245.81 213.844C245.604 214.089 245.194 214.211 244.579 214.211C244.455 214.211 244.356 214.209 244.281 214.206C244.206 214.206 244.094 214.201 243.944 214.191V213.078Z" fill="#8C8C8C"/>
<path d="M190.678 209.338H192.504L191.605 206.506L190.678 209.338ZM190.771 204.86H192.47L195.019 212.057H193.388L192.924 210.578H190.272L189.774 212.057H188.202L190.771 204.86ZM199.491 209.396C199.491 208.986 199.397 208.623 199.208 208.307C199.022 207.992 198.72 207.834 198.3 207.834C197.795 207.834 197.449 208.073 197.26 208.552C197.162 208.805 197.113 209.128 197.113 209.518C197.113 210.137 197.278 210.571 197.606 210.822C197.802 210.969 198.033 211.042 198.3 211.042C198.687 211.042 198.982 210.892 199.184 210.593C199.389 210.293 199.491 209.894 199.491 209.396ZM198.7 206.618C199.322 206.618 199.848 206.847 200.277 207.306C200.71 207.765 200.927 208.439 200.927 209.328C200.927 210.265 200.715 210.98 200.292 211.471C199.872 211.963 199.33 212.209 198.666 212.209C198.243 212.209 197.891 212.103 197.611 211.891C197.458 211.774 197.309 211.603 197.162 211.379V214.152H195.785V206.735H197.118V207.521C197.268 207.29 197.427 207.108 197.597 206.974C197.906 206.737 198.274 206.618 198.7 206.618ZM204.828 206.608C204.854 206.608 204.875 206.61 204.892 206.613C204.911 206.613 204.952 206.615 205.014 206.618V208.044C204.926 208.034 204.848 208.027 204.779 208.024C204.711 208.021 204.656 208.019 204.613 208.019C204.053 208.019 203.677 208.202 203.485 208.566C203.378 208.771 203.324 209.087 203.324 209.513V212.057H201.923V206.735H203.251V207.663C203.466 207.308 203.653 207.066 203.812 206.935C204.073 206.717 204.411 206.608 204.828 206.608Z" fill="#8C8C8C"/>
<path d="M151.97 204.86H154.133V212.057H152.731V207.189C152.731 207.049 152.733 206.854 152.736 206.603C152.74 206.349 152.741 206.154 152.741 206.017L151.379 212.057H149.919L148.566 206.017C148.566 206.154 148.568 206.349 148.571 206.603C148.575 206.854 148.576 207.049 148.576 207.189V212.057H147.175V204.86H149.362L150.671 210.519L151.97 204.86ZM158.352 209.469C158.264 209.525 158.174 209.57 158.083 209.606C157.995 209.639 157.873 209.67 157.717 209.699L157.404 209.758C157.111 209.81 156.901 209.873 156.774 209.948C156.56 210.075 156.452 210.272 156.452 210.539C156.452 210.776 156.517 210.949 156.647 211.056C156.781 211.161 156.942 211.213 157.131 211.213C157.43 211.213 157.705 211.125 157.956 210.949C158.21 210.773 158.342 210.453 158.352 209.987V209.469ZM157.507 208.82C157.764 208.788 157.948 208.747 158.059 208.698C158.257 208.613 158.356 208.482 158.356 208.302C158.356 208.084 158.28 207.935 158.127 207.853C157.977 207.769 157.756 207.726 157.463 207.726C157.134 207.726 156.901 207.808 156.765 207.97C156.667 208.091 156.602 208.254 156.569 208.459H155.227C155.256 207.993 155.386 207.611 155.617 207.311C155.985 206.843 156.617 206.608 157.512 206.608C158.094 206.608 158.612 206.724 159.064 206.955C159.517 207.186 159.743 207.622 159.743 208.263V210.705C159.743 210.874 159.746 211.079 159.753 211.32C159.763 211.502 159.79 211.626 159.836 211.691C159.882 211.756 159.95 211.81 160.041 211.852V212.057H158.527C158.485 211.95 158.456 211.849 158.439 211.755C158.423 211.66 158.41 211.553 158.4 211.432C158.208 211.641 157.987 211.818 157.736 211.965C157.437 212.137 157.098 212.223 156.721 212.223C156.239 212.223 155.84 212.087 155.524 211.813C155.212 211.537 155.056 211.146 155.056 210.641C155.056 209.987 155.308 209.513 155.812 209.22C156.089 209.061 156.496 208.947 157.033 208.879L157.507 208.82ZM163.874 206.608C163.9 206.608 163.921 206.61 163.938 206.613C163.957 206.613 163.998 206.615 164.06 206.618V208.044C163.972 208.034 163.894 208.027 163.825 208.024C163.757 208.021 163.701 208.019 163.659 208.019C163.099 208.019 162.723 208.202 162.531 208.566C162.424 208.771 162.37 209.087 162.37 209.513V212.057H160.969V206.735H162.297V207.663C162.512 207.308 162.699 207.066 162.858 206.935C163.119 206.717 163.457 206.608 163.874 206.608Z" fill="#8C8C8C"/>
<path d="M105.689 204.87H110.792V206.135H107.184V207.79H110.343V209.04H107.184V212.057H105.689V204.87ZM113.79 207.741C113.468 207.741 113.217 207.842 113.038 208.044C112.862 208.246 112.752 208.519 112.706 208.864H114.869C114.846 208.496 114.734 208.218 114.532 208.029C114.334 207.837 114.086 207.741 113.79 207.741ZM113.79 206.594C114.233 206.594 114.632 206.677 114.986 206.843C115.341 207.009 115.634 207.271 115.865 207.629C116.074 207.944 116.209 208.311 116.271 208.727C116.306 208.971 116.321 209.323 116.314 209.782H112.672C112.691 210.316 112.859 210.69 113.175 210.905C113.367 211.038 113.598 211.105 113.868 211.105C114.155 211.105 114.387 211.024 114.566 210.861C114.664 210.773 114.75 210.651 114.825 210.495H116.246C116.21 210.811 116.046 211.131 115.753 211.457C115.297 211.974 114.659 212.233 113.839 212.233C113.162 212.233 112.564 212.015 112.047 211.579C111.529 211.143 111.271 210.433 111.271 209.45C111.271 208.529 111.503 207.822 111.969 207.331C112.438 206.839 113.045 206.594 113.79 206.594ZM120.133 206.618C120.833 206.618 121.38 206.87 121.773 207.375C122.171 207.879 122.369 208.53 122.369 209.328C122.369 210.155 122.174 210.84 121.783 211.384C121.393 211.927 120.847 212.199 120.147 212.199C119.708 212.199 119.355 212.111 119.088 211.935C118.928 211.831 118.756 211.649 118.57 211.388V212.057H117.208V204.87H118.595V207.428C118.771 207.181 118.964 206.992 119.176 206.862C119.426 206.699 119.745 206.618 120.133 206.618ZM119.776 211.052C120.134 211.052 120.413 210.907 120.611 210.617C120.81 210.327 120.909 209.946 120.909 209.474C120.909 209.097 120.86 208.784 120.763 208.537C120.577 208.068 120.235 207.834 119.737 207.834C119.233 207.834 118.886 208.063 118.697 208.522C118.6 208.766 118.551 209.082 118.551 209.469C118.551 209.925 118.652 210.303 118.854 210.602C119.055 210.902 119.363 211.052 119.776 211.052Z" fill="#8C8C8C"/>
<path d="M65.333 209.328V209.494C65.346 210.051 65.4062 210.443 65.5137 210.671C65.6243 210.895 65.8587 211.008 66.2168 211.008C66.5716 211.008 66.806 210.884 66.9199 210.636C66.9883 210.49 67.0225 210.243 67.0225 209.894V204.86H68.5264V209.87C68.5264 210.482 68.4206 210.967 68.209 211.325C67.8509 211.93 67.2048 212.233 66.2705 212.233C65.3363 212.233 64.7096 211.989 64.3906 211.501C64.0716 211.009 63.9121 210.34 63.9121 209.494V209.328H65.333ZM72.8428 209.469C72.7549 209.525 72.6654 209.57 72.5742 209.606C72.4863 209.639 72.3643 209.67 72.208 209.699L71.8955 209.758C71.6025 209.81 71.3926 209.873 71.2656 209.948C71.0508 210.075 70.9434 210.272 70.9434 210.539C70.9434 210.776 71.0085 210.949 71.1387 211.056C71.2721 211.161 71.4333 211.213 71.6221 211.213C71.9215 211.213 72.1966 211.125 72.4473 210.949C72.7012 210.773 72.833 210.453 72.8428 209.987V209.469ZM71.998 208.82C72.2552 208.788 72.4391 208.747 72.5498 208.698C72.7484 208.613 72.8477 208.482 72.8477 208.302C72.8477 208.084 72.7712 207.935 72.6182 207.853C72.4684 207.769 72.2471 207.726 71.9541 207.726C71.6253 207.726 71.3926 207.808 71.2559 207.97C71.1582 208.091 71.0931 208.254 71.0605 208.459H69.7178C69.7471 207.993 69.8773 207.611 70.1084 207.311C70.4762 206.843 71.1077 206.608 72.0029 206.608C72.5856 206.608 73.1032 206.724 73.5557 206.955C74.0081 207.186 74.2344 207.622 74.2344 208.263V210.705C74.2344 210.874 74.2376 211.079 74.2441 211.32C74.2539 211.502 74.2816 211.626 74.3271 211.691C74.3727 211.756 74.4411 211.81 74.5322 211.852V212.057H73.0186C72.9762 211.95 72.9469 211.849 72.9307 211.755C72.9144 211.66 72.9014 211.553 72.8916 211.432C72.6995 211.641 72.4782 211.818 72.2275 211.965C71.9281 212.137 71.5895 212.223 71.2119 212.223C70.7301 212.223 70.3314 212.087 70.0156 211.813C69.7031 211.537 69.5469 211.146 69.5469 210.641C69.5469 209.987 69.7992 209.513 70.3037 209.22C70.5804 209.061 70.9873 208.947 71.5244 208.879L71.998 208.82ZM78.4238 206.608C78.974 206.608 79.4232 206.753 79.7715 207.043C80.123 207.329 80.2988 207.806 80.2988 208.473V212.057H78.873V208.82C78.873 208.54 78.8356 208.325 78.7607 208.176C78.624 207.902 78.3636 207.765 77.9795 207.765C77.5075 207.765 77.1836 207.966 77.0078 208.366C76.9167 208.578 76.8711 208.848 76.8711 209.177V212.057H75.4844V206.745H76.8271V207.521C77.0062 207.248 77.1755 207.051 77.335 206.93C77.6214 206.716 77.9844 206.608 78.4238 206.608Z" fill="#8C8C8C"/>
<path d="M48.8223 191.906C48.8223 192.72 48.889 193.343 49.0225 193.776C49.1559 194.206 49.4294 194.421 49.8428 194.421C50.2562 194.421 50.5264 194.206 50.6533 193.776C50.7835 193.343 50.8486 192.72 50.8486 191.906C50.8486 191.053 50.7835 190.422 50.6533 190.012C50.5264 189.602 50.2562 189.396 49.8428 189.396C49.4294 189.396 49.1559 189.602 49.0225 190.012C48.889 190.422 48.8223 191.053 48.8223 191.906ZM49.8428 188.249C50.7445 188.249 51.376 188.566 51.7373 189.201C52.1019 189.836 52.2842 190.738 52.2842 191.906C52.2842 193.075 52.1019 193.975 51.7373 194.606C51.376 195.238 50.7445 195.554 49.8428 195.554C48.9411 195.554 48.3079 195.238 47.9434 194.606C47.582 193.975 47.4014 193.075 47.4014 191.906C47.4014 190.738 47.582 189.836 47.9434 189.201C48.3079 188.566 48.9411 188.249 49.8428 188.249Z" fill="#8C8C8C"/>
<path d="M41.6934 164.019V163.072C42.1328 163.053 42.4404 163.023 42.6162 162.984C42.8962 162.922 43.124 162.799 43.2998 162.613C43.4202 162.486 43.5114 162.317 43.5732 162.105C43.609 161.978 43.627 161.884 43.627 161.822H44.7842V168.902H43.3584V164.019H41.6934ZM48.2998 165.431C48.2998 166.244 48.3665 166.868 48.5 167.301C48.6335 167.73 48.9069 167.945 49.3203 167.945C49.7337 167.945 50.0039 167.73 50.1309 167.301C50.2611 166.868 50.3262 166.244 50.3262 165.431C50.3262 164.578 50.2611 163.946 50.1309 163.536C50.0039 163.126 49.7337 162.921 49.3203 162.921C48.9069 162.921 48.6335 163.126 48.5 163.536C48.3665 163.946 48.2998 164.578 48.2998 165.431ZM49.3203 161.773C50.222 161.773 50.8535 162.091 51.2148 162.725C51.5794 163.36 51.7617 164.262 51.7617 165.431C51.7617 166.599 51.5794 167.499 51.2148 168.131C50.8535 168.762 50.222 169.078 49.3203 169.078C48.4186 169.078 47.7855 168.762 47.4209 168.131C47.0596 167.499 46.8789 166.599 46.8789 165.431C46.8789 164.262 47.0596 163.36 47.4209 162.725C47.7855 162.091 48.4186 161.773 49.3203 161.773ZM53.8662 165.431C53.8662 166.244 53.9329 166.868 54.0664 167.301C54.1999 167.73 54.4733 167.945 54.8867 167.945C55.3001 167.945 55.5703 167.73 55.6973 167.301C55.8275 166.868 55.8926 166.244 55.8926 165.431C55.8926 164.578 55.8275 163.946 55.6973 163.536C55.5703 163.126 55.3001 162.921 54.8867 162.921C54.4733 162.921 54.1999 163.126 54.0664 163.536C53.9329 163.946 53.8662 164.578 53.8662 165.431ZM54.8867 161.773C55.7884 161.773 56.4199 162.091 56.7812 162.725C57.1458 163.36 57.3281 164.262 57.3281 165.431C57.3281 166.599 57.1458 167.499 56.7812 168.131C56.4199 168.762 55.7884 169.078 54.8867 169.078C53.985 169.078 53.3519 168.762 52.9873 168.131C52.626 167.499 52.4453 166.599 52.4453 165.431C52.4453 164.262 52.626 163.36 52.9873 162.725C53.3519 162.091 53.985 161.773 54.8867 161.773Z" fill="#8C8C8C"/>
<path d="M41.3125 142.427C41.3255 141.919 41.4346 141.455 41.6396 141.035C41.8382 140.563 42.307 140.063 43.0459 139.536C43.6872 139.077 44.1022 138.748 44.291 138.55C44.5807 138.24 44.7256 137.902 44.7256 137.534C44.7256 137.235 44.6426 136.986 44.4766 136.787C44.3105 136.588 44.0729 136.489 43.7637 136.489C43.3405 136.489 43.0524 136.647 42.8994 136.963C42.8115 137.145 42.7594 137.435 42.7432 137.832H41.3906C41.4134 137.23 41.5225 136.743 41.7178 136.372C42.0889 135.666 42.748 135.312 43.6953 135.312C44.444 135.312 45.0397 135.521 45.4824 135.937C45.9251 136.351 46.1465 136.899 46.1465 137.583C46.1465 138.107 45.9902 138.572 45.6777 138.979C45.4727 139.25 45.1357 139.551 44.667 139.883L44.1104 140.278C43.762 140.526 43.5228 140.705 43.3926 140.815C43.2656 140.926 43.1582 141.055 43.0703 141.201H46.1611V142.427H41.3125ZM48.2998 138.955C48.2998 139.769 48.3665 140.392 48.5 140.825C48.6335 141.255 48.9069 141.47 49.3203 141.47C49.7337 141.47 50.0039 141.255 50.1309 140.825C50.2611 140.392 50.3262 139.769 50.3262 138.955C50.3262 138.102 50.2611 137.471 50.1309 137.06C50.0039 136.65 49.7337 136.445 49.3203 136.445C48.9069 136.445 48.6335 136.65 48.5 137.06C48.3665 137.471 48.2998 138.102 48.2998 138.955ZM49.3203 135.298C50.222 135.298 50.8535 135.615 51.2148 136.25C51.5794 136.885 51.7617 137.786 51.7617 138.955C51.7617 140.124 51.5794 141.024 51.2148 141.655C50.8535 142.287 50.222 142.602 49.3203 142.602C48.4186 142.602 47.7855 142.287 47.4209 141.655C47.0596 141.024 46.8789 140.124 46.8789 138.955C46.8789 137.786 47.0596 136.885 47.4209 136.25C47.7855 135.615 48.4186 135.298 49.3203 135.298ZM53.8662 138.955C53.8662 139.769 53.9329 140.392 54.0664 140.825C54.1999 141.255 54.4733 141.47 54.8867 141.47C55.3001 141.47 55.5703 141.255 55.6973 140.825C55.8275 140.392 55.8926 139.769 55.8926 138.955C55.8926 138.102 55.8275 137.471 55.6973 137.06C55.5703 136.65 55.3001 136.445 54.8867 136.445C54.4733 136.445 54.1999 136.65 54.0664 137.06C53.9329 137.471 53.8662 138.102 53.8662 138.955ZM54.8867 135.298C55.7884 135.298 56.4199 135.615 56.7812 136.25C57.1458 136.885 57.3281 137.786 57.3281 138.955C57.3281 140.124 57.1458 141.024 56.7812 141.655C56.4199 142.287 55.7884 142.602 54.8867 142.602C53.985 142.602 53.3519 142.287 52.9873 141.655C52.626 141.024 52.4453 140.124 52.4453 138.955C52.4453 137.786 52.626 136.885 52.9873 136.25C53.3519 135.615 53.985 135.298 54.8867 135.298Z" fill="#8C8C8C"/>
<path d="M42.6309 113.778C42.6309 114.061 42.6764 114.296 42.7676 114.481C42.9368 114.823 43.2445 114.994 43.6904 114.994C43.9639 114.994 44.2015 114.901 44.4033 114.716C44.6084 114.527 44.7109 114.257 44.7109 113.905C44.7109 113.44 44.5221 113.129 44.1445 112.973C43.9297 112.885 43.5911 112.841 43.1289 112.841V111.845C43.5814 111.838 43.8971 111.794 44.0762 111.713C44.3854 111.576 44.54 111.299 44.54 110.883C44.54 110.613 44.4603 110.393 44.3008 110.224C44.1445 110.054 43.9232 109.97 43.6367 109.97C43.3079 109.97 43.0654 110.074 42.9092 110.282C42.7562 110.49 42.6829 110.769 42.6895 111.117H41.3906C41.4036 110.766 41.4639 110.432 41.5713 110.116C41.6852 109.839 41.8643 109.584 42.1084 109.349C42.2907 109.183 42.5072 109.057 42.7578 108.969C43.0085 108.881 43.3161 108.837 43.6807 108.837C44.3577 108.837 44.903 109.013 45.3164 109.364C45.7331 109.712 45.9414 110.181 45.9414 110.77C45.9414 111.187 45.8177 111.539 45.5703 111.825C45.4141 112.004 45.2513 112.126 45.082 112.191C45.209 112.191 45.3913 112.3 45.6289 112.518C45.9837 112.847 46.1611 113.296 46.1611 113.866C46.1611 114.465 45.9528 114.992 45.5361 115.448C45.1227 115.901 44.5091 116.127 43.6953 116.127C42.6927 116.127 41.9961 115.8 41.6055 115.145C41.4004 114.797 41.2865 114.341 41.2637 113.778H42.6309ZM48.2998 112.479C48.2998 113.293 48.3665 113.917 48.5 114.349C48.6335 114.779 48.9069 114.994 49.3203 114.994C49.7337 114.994 50.0039 114.779 50.1309 114.349C50.2611 113.917 50.3262 113.293 50.3262 112.479C50.3262 111.627 50.2611 110.995 50.1309 110.585C50.0039 110.175 49.7337 109.97 49.3203 109.97C48.9069 109.97 48.6335 110.175 48.5 110.585C48.3665 110.995 48.2998 111.627 48.2998 112.479ZM49.3203 108.822C50.222 108.822 50.8535 109.14 51.2148 109.774C51.5794 110.409 51.7617 111.311 51.7617 112.479C51.7617 113.648 51.5794 114.548 51.2148 115.18C50.8535 115.811 50.222 116.127 49.3203 116.127C48.4186 116.127 47.7855 115.811 47.4209 115.18C47.0596 114.548 46.8789 113.648 46.8789 112.479C46.8789 111.311 47.0596 110.409 47.4209 109.774C47.7855 109.14 48.4186 108.822 49.3203 108.822ZM53.8662 112.479C53.8662 113.293 53.9329 113.917 54.0664 114.349C54.1999 114.779 54.4733 114.994 54.8867 114.994C55.3001 114.994 55.5703 114.779 55.6973 114.349C55.8275 113.917 55.8926 113.293 55.8926 112.479C55.8926 111.627 55.8275 110.995 55.6973 110.585C55.5703 110.175 55.3001 109.97 54.8867 109.97C54.4733 109.97 54.1999 110.175 54.0664 110.585C53.9329 110.995 53.8662 111.627 53.8662 112.479ZM54.8867 108.822C55.7884 108.822 56.4199 109.14 56.7812 109.774C57.1458 110.409 57.3281 111.311 57.3281 112.479C57.3281 113.648 57.1458 114.548 56.7812 115.18C56.4199 115.811 55.7884 116.127 54.8867 116.127C53.985 116.127 53.3519 115.811 52.9873 115.18C52.626 114.548 52.4453 113.648 52.4453 112.479C52.4453 111.311 52.626 110.409 52.9873 109.774C53.3519 109.14 53.985 108.822 54.8867 108.822Z" fill="#8C8C8C"/>
<path d="M46.2295 87.9521H45.4287V89.4756H44.0664V87.9521H41.2637V86.7363L43.8662 82.4395H45.4287V86.8633H46.2295V87.9521ZM44.0664 86.8633V83.8066L42.2939 86.8633H44.0664ZM48.2998 86.0039C48.2998 86.8177 48.3665 87.4411 48.5 87.874C48.6335 88.3037 48.9069 88.5186 49.3203 88.5186C49.7337 88.5186 50.0039 88.3037 50.1309 87.874C50.2611 87.4411 50.3262 86.8177 50.3262 86.0039C50.3262 85.151 50.2611 84.5195 50.1309 84.1094C50.0039 83.6992 49.7337 83.4941 49.3203 83.4941C48.9069 83.4941 48.6335 83.6992 48.5 84.1094C48.3665 84.5195 48.2998 85.151 48.2998 86.0039ZM49.3203 82.3467C50.222 82.3467 50.8535 82.6641 51.2148 83.2988C51.5794 83.9336 51.7617 84.8353 51.7617 86.0039C51.7617 87.1725 51.5794 88.0726 51.2148 88.7041C50.8535 89.3356 50.222 89.6514 49.3203 89.6514C48.4186 89.6514 47.7855 89.3356 47.4209 88.7041C47.0596 88.0726 46.8789 87.1725 46.8789 86.0039C46.8789 84.8353 47.0596 83.9336 47.4209 83.2988C47.7855 82.6641 48.4186 82.3467 49.3203 82.3467ZM53.8662 86.0039C53.8662 86.8177 53.9329 87.4411 54.0664 87.874C54.1999 88.3037 54.4733 88.5186 54.8867 88.5186C55.3001 88.5186 55.5703 88.3037 55.6973 87.874C55.8275 87.4411 55.8926 86.8177 55.8926 86.0039C55.8926 85.151 55.8275 84.5195 55.6973 84.1094C55.5703 83.6992 55.3001 83.4941 54.8867 83.4941C54.4733 83.4941 54.1999 83.6992 54.0664 84.1094C53.9329 84.5195 53.8662 85.151 53.8662 86.0039ZM54.8867 82.3467C55.7884 82.3467 56.4199 82.6641 56.7812 83.2988C57.1458 83.9336 57.3281 84.8353 57.3281 86.0039C57.3281 87.1725 57.1458 88.0726 56.7812 88.7041C56.4199 89.3356 55.7884 89.6514 54.8867 89.6514C53.985 89.6514 53.3519 89.3356 52.9873 88.7041C52.626 88.0726 52.4453 87.1725 52.4453 86.0039C52.4453 84.8353 52.626 83.9336 52.9873 83.2988C53.3519 82.6641 53.985 82.3467 54.8867 82.3467Z" fill="#8C8C8C"/>
<path d="M42.6504 61.1055C42.7057 61.4082 42.8115 61.6426 42.9678 61.8086C43.124 61.9714 43.3519 62.0527 43.6514 62.0527C43.9964 62.0527 44.2585 61.9323 44.4375 61.6914C44.6198 61.4473 44.7109 61.1413 44.7109 60.7734C44.7109 60.4121 44.6263 60.1077 44.457 59.8604C44.2878 59.6097 44.0241 59.4844 43.666 59.4844C43.4967 59.4844 43.3503 59.5055 43.2266 59.5479C43.0085 59.626 42.8441 59.7708 42.7334 59.9824L41.4834 59.9238L41.9814 56.0127H45.8828V57.1943H42.9873L42.7334 58.7422C42.9482 58.6022 43.1159 58.5094 43.2363 58.4639C43.4382 58.389 43.6839 58.3516 43.9736 58.3516C44.5596 58.3516 45.0706 58.5485 45.5068 58.9424C45.943 59.3363 46.1611 59.9092 46.1611 60.6611C46.1611 61.3154 45.9512 61.8997 45.5312 62.4141C45.1113 62.9284 44.4831 63.1855 43.6465 63.1855C42.9727 63.1855 42.4193 63.0049 41.9863 62.6436C41.5534 62.2822 41.3125 61.7695 41.2637 61.1055H42.6504ZM48.2998 59.5283C48.2998 60.3421 48.3665 60.9655 48.5 61.3984C48.6335 61.8281 48.9069 62.043 49.3203 62.043C49.7337 62.043 50.0039 61.8281 50.1309 61.3984C50.2611 60.9655 50.3262 60.3421 50.3262 59.5283C50.3262 58.6755 50.2611 58.0439 50.1309 57.6338C50.0039 57.2236 49.7337 57.0186 49.3203 57.0186C48.9069 57.0186 48.6335 57.2236 48.5 57.6338C48.3665 58.0439 48.2998 58.6755 48.2998 59.5283ZM49.3203 55.8711C50.222 55.8711 50.8535 56.1885 51.2148 56.8232C51.5794 57.458 51.7617 58.3597 51.7617 59.5283C51.7617 60.6969 51.5794 61.597 51.2148 62.2285C50.8535 62.86 50.222 63.1758 49.3203 63.1758C48.4186 63.1758 47.7855 62.86 47.4209 62.2285C47.0596 61.597 46.8789 60.6969 46.8789 59.5283C46.8789 58.3597 47.0596 57.458 47.4209 56.8232C47.7855 56.1885 48.4186 55.8711 49.3203 55.8711ZM53.8662 59.5283C53.8662 60.3421 53.9329 60.9655 54.0664 61.3984C54.1999 61.8281 54.4733 62.043 54.8867 62.043C55.3001 62.043 55.5703 61.8281 55.6973 61.3984C55.8275 60.9655 55.8926 60.3421 55.8926 59.5283C55.8926 58.6755 55.8275 58.0439 55.6973 57.6338C55.5703 57.2236 55.3001 57.0186 54.8867 57.0186C54.4733 57.0186 54.1999 57.2236 54.0664 57.6338C53.9329 58.0439 53.8662 58.6755 53.8662 59.5283ZM54.8867 55.8711C55.7884 55.8711 56.4199 56.1885 56.7812 56.8232C57.1458 57.458 57.3281 58.3597 57.3281 59.5283C57.3281 60.6969 57.1458 61.597 56.7812 62.2285C56.4199 62.86 55.7884 63.1758 54.8867 63.1758C53.985 63.1758 53.3519 62.86 52.9873 62.2285C52.626 61.597 52.4453 60.6969 52.4453 59.5283C52.4453 58.3597 52.626 57.458 52.9873 56.8232C53.3519 56.1885 53.985 55.8711 54.8867 55.8711Z" fill="#8C8C8C"/>
<line x1="64.1924" y1="187.849" x2="528.117" y2="187.849" stroke="#56577A" stroke-linecap="round" stroke-linejoin="round" stroke-dasharray="3.5 3.5"/>
<line x1="64.1924" y1="161.374" x2="528.117" y2="161.374" stroke="#56577A" stroke-linecap="round" stroke-linejoin="round" stroke-dasharray="3.5 3.5"/>
<line x1="64.1924" y1="134.898" x2="528.117" y2="134.898" stroke="#56577A" stroke-linecap="round" stroke-linejoin="round" stroke-dasharray="3.5 3.5"/>
<line x1="64.1924" y1="108.422" x2="528.117" y2="108.422" stroke="#56577A" stroke-linecap="round" stroke-linejoin="round" stroke-dasharray="3.5 3.5"/>
<line x1="64.1924" y1="81.9469" x2="528.117" y2="81.9469" stroke="#56577A" stroke-linecap="round" stroke-linejoin="round" stroke-dasharray="3.5 3.5"/>
<path d="M64.1924 55.4713L528.117 55.4714" stroke="#56577A" stroke-linecap="round" stroke-linejoin="round" stroke-dasharray="3.5 3.5"/>
<path d="M465.078 145.747C489.214 138.812 517.494 148.637 528.616 154.416V188.217H63.6914V55.9713C87.0489 59.9385 102.064 92.5577 105.818 113.275C108.88 130.173 109.016 142.221 125.283 145.747C141.637 149.293 161.026 138.011 177.432 122.73C190.557 110.506 210.151 117.637 218.307 122.73C232.767 131.595 256.585 137.607 275.716 128.556C299.63 117.242 312.838 120.475 343.008 128.556C373.178 136.638 370.119 141.78 395.284 154.416C420.449 167.053 434.908 154.416 465.078 145.747Z" fill="url(#paint0_linear_168_332)"/>
<path d="M528.616 154.416C517.494 148.637 489.214 138.812 465.078 145.747C434.908 154.416 420.449 167.053 395.284 154.416C370.119 141.78 373.178 136.638 343.008 128.556C312.838 120.475 299.63 117.242 275.716 128.556C256.585 137.607 232.767 131.595 218.307 122.73C210.151 117.637 190.557 110.506 177.432 122.73C161.026 138.011 141.637 149.293 125.283 145.747C109.016 142.221 108.88 130.173 105.818 113.275C102.064 92.5577 87.0489 59.9385 63.6914 55.9713" stroke="#2CD9FF" stroke-width="3"/>
<path d="M126.741 131.404C102.79 124.474 74.7285 134.291 63.6914 140.066V188.084H528.063V74.4552C504.885 78.4194 485.195 77.3914 481.47 98.0938C478.432 114.979 478.297 127.018 462.155 130.542C445.927 134.085 436.494 113.364 420.214 98.0938C407.191 85.8779 385.256 101.774 377.163 106.864C362.814 115.722 330.197 96.3946 316.061 81.2014C295.877 59.5074 269.333 57.5232 249.287 81.2014C229.24 104.88 209.355 85.4668 184.384 98.0938C159.413 110.721 156.679 140.066 126.741 131.404Z" fill="url(#paint1_linear_168_332)"/>
<path d="M63.6914 140.164C74.7285 134.381 102.79 124.551 126.741 131.49C156.679 140.164 159.413 110.78 184.384 98.1372C209.355 85.4941 229.24 104.932 249.287 81.2232C269.333 57.5147 295.877 59.5014 316.061 81.2232C330.197 96.4358 362.814 115.788 377.163 106.919C385.256 101.822 407.191 85.9057 420.214 98.1372C436.494 113.427 445.927 134.174 462.155 130.627C478.297 127.099 478.432 115.044 481.47 98.1372C485.195 77.4083 504.885 78.4377 528.063 74.4683" stroke="#0075FF" stroke-width="3"/>
<g opacity="0.3">
<path d="M521.9 42.1804C521.449 41.7339 520.718 41.7339 520.267 42.1804C519.816 42.627 519.816 43.351 520.267 43.7975C520.718 44.2441 521.449 44.2441 521.9 43.7975C522.351 43.351 522.351 42.627 521.9 42.1804Z" fill="#030229"/>
<path d="M518.435 42.1804C517.984 41.7339 517.253 41.7339 516.802 42.1804C516.351 42.627 516.351 43.351 516.802 43.7975C517.253 44.2441 517.984 44.2441 518.435 43.7975C518.886 43.351 518.886 42.627 518.435 42.1804Z" fill="#030229"/>
<path d="M514.971 42.1804C514.52 41.7339 513.789 41.7339 513.338 42.1804C512.887 42.627 512.887 43.351 513.338 43.7975C513.789 44.2441 514.52 44.2441 514.971 43.7975C515.422 43.351 515.422 42.627 514.971 42.1804Z" fill="#030229"/>
</g>
<defs>
<linearGradient id="paint0_linear_168_332" x1="296.154" y1="55.9713" x2="296.154" y2="188.217" gradientUnits="userSpaceOnUse">
<stop stop-color="#2CD9FF" stop-opacity="0.36"/>
<stop offset="1" stop-color="#2CD9FF" stop-opacity="0"/>
</linearGradient>
<linearGradient id="paint1_linear_168_332" x1="295.877" y1="64.1787" x2="295.877" y2="188.084" gradientUnits="userSpaceOnUse">
<stop stop-color="#0075FF"/>
<stop offset="1" stop-color="#0075FF" stop-opacity="0"/>
</linearGradient>
</defs>
</svg>
