<svg width="18" height="18" viewBox="0 0 18 18" fill="none" xmlns="http://www.w3.org/2000/svg">
<path d="M8.93955 3.46208C8.88866 3.4134 8.82096 3.38623 8.75054 3.38623C8.68011 3.38623 8.61241 3.4134 8.56152 3.46208L2.26904 9.47326C2.24232 9.49882 2.22106 9.52954 2.20655 9.56355C2.19204 9.59757 2.18458 9.63418 2.18462 9.67116L2.18359 15.3129C2.18359 15.6029 2.29883 15.8811 2.50395 16.0863C2.70906 16.2914 2.98726 16.4066 3.27734 16.4066H6.56201C6.70705 16.4066 6.84615 16.349 6.94871 16.2464C7.05127 16.1439 7.10889 16.0048 7.10889 15.8597V11.2113C7.10889 11.1388 7.13769 11.0692 7.18897 11.0179C7.24025 10.9667 7.3098 10.9379 7.38232 10.9379H10.1167C10.1892 10.9379 10.2588 10.9667 10.31 11.0179C10.3613 11.0692 10.3901 11.1388 10.3901 11.2113V15.8597C10.3901 16.0048 10.4478 16.1439 10.5503 16.2464C10.6529 16.349 10.792 16.4066 10.937 16.4066H14.2203C14.5104 16.4066 14.7886 16.2914 14.9937 16.0863C15.1988 15.8811 15.3141 15.6029 15.3141 15.3129V9.67116C15.3141 9.63418 15.3066 9.59757 15.2921 9.56355C15.2776 9.52954 15.2564 9.49882 15.2296 9.47326L8.93955 3.46208Z" fill="white"/>
<path d="M16.7792 8.34595L14.2225 5.90005V2.18848C14.2225 2.04344 14.1649 1.90434 14.0623 1.80178C13.9598 1.69922 13.8207 1.6416 13.6756 1.6416H12.035C11.89 1.6416 11.7509 1.69922 11.6483 1.80178C11.5458 1.90434 11.4881 2.04344 11.4881 2.18848V3.28223L9.50846 1.38936C9.3232 1.20205 9.04771 1.09473 8.75001 1.09473C8.45333 1.09473 8.17853 1.20205 7.99327 1.3897L0.723255 8.34526C0.510658 8.55034 0.483997 8.88769 0.677454 9.10986C0.726034 9.16594 0.785517 9.21155 0.852283 9.24391C0.919049 9.27627 0.991701 9.2947 1.06582 9.29809C1.13993 9.30148 1.21397 9.28975 1.28341 9.26362C1.35285 9.23749 1.41624 9.1975 1.46974 9.14609L8.56202 2.36894C8.61291 2.32027 8.68061 2.2931 8.75103 2.2931C8.82146 2.2931 8.88916 2.32027 8.94005 2.36894L16.033 9.14609C16.1375 9.24629 16.2774 9.30097 16.4222 9.29815C16.5669 9.29533 16.7046 9.23524 16.8051 9.13105C17.015 8.91367 16.9976 8.55478 16.7792 8.34595Z" fill="white"/>
</svg>
