<svg width="46" height="46" viewBox="0 0 46 46" fill="none" xmlns="http://www.w3.org/2000/svg">
<g filter="url(#filter0_d_154_2426)">
<rect x="5.5" y="2" width="35" height="35" rx="12" fill="#1A1F37"/>
</g>
<path d="M23.1895 14.2121C23.1387 14.1634 23.071 14.1362 23.0005 14.1362C22.9301 14.1362 22.8624 14.1634 22.8115 14.2121L16.519 20.2233C16.4923 20.2488 16.4711 20.2795 16.4565 20.3136C16.442 20.3476 16.4346 20.3842 16.4346 20.4212L16.4336 26.0629C16.4336 26.3529 16.5488 26.6311 16.7539 26.8363C16.9591 27.0414 17.2373 27.1566 17.5273 27.1566H20.812C20.9571 27.1566 21.0961 27.099 21.1987 26.9964C21.3013 26.8939 21.3589 26.7548 21.3589 26.6097V21.9613C21.3589 21.8888 21.3877 21.8192 21.439 21.7679C21.4903 21.7167 21.5598 21.6879 21.6323 21.6879H24.3667C24.4392 21.6879 24.5088 21.7167 24.56 21.7679C24.6113 21.8192 24.6401 21.8888 24.6401 21.9613V26.6097C24.6401 26.7548 24.6978 26.8939 24.8003 26.9964C24.9029 27.099 25.042 27.1566 25.187 27.1566H28.4703C28.7604 27.1566 29.0386 27.0414 29.2437 26.8363C29.4488 26.6311 29.5641 26.3529 29.5641 26.0629V20.4212C29.5641 20.3842 29.5566 20.3476 29.5421 20.3136C29.5276 20.2795 29.5064 20.2488 29.4796 20.2233L23.1895 14.2121Z" fill="white"/>
<path d="M31.0292 19.0959L28.4725 16.65V12.9385C28.4725 12.7934 28.4149 12.6543 28.3123 12.5518C28.2098 12.4492 28.0707 12.3916 27.9256 12.3916H26.285C26.14 12.3916 26.0009 12.4492 25.8983 12.5518C25.7958 12.6543 25.7381 12.7934 25.7381 12.9385V14.0322L23.7585 12.1394C23.5732 11.9521 23.2977 11.8447 23 11.8447C22.7033 11.8447 22.4285 11.9521 22.2433 12.1397L14.9733 19.0953C14.7607 19.3003 14.734 19.6377 14.9275 19.8599C14.976 19.9159 15.0355 19.9615 15.1023 19.9939C15.169 20.0263 15.2417 20.0447 15.3158 20.0481C15.3899 20.0515 15.464 20.0398 15.5334 20.0136C15.6028 19.9875 15.6662 19.9475 15.7197 19.8961L22.812 13.1189C22.8629 13.0703 22.9306 13.0431 23.001 13.0431C23.0715 13.0431 23.1392 13.0703 23.19 13.1189L30.283 19.8961C30.3875 19.9963 30.5274 20.051 30.6722 20.0482C30.8169 20.0453 30.9546 19.9852 31.0551 19.8811C31.265 19.6637 31.2476 19.3048 31.0292 19.0959Z" fill="white"/>
<defs>
<filter id="filter0_d_154_2426" x="-4.76837e-07" y="-2.38419e-07" width="46" height="46" filterUnits="userSpaceOnUse" color-interpolation-filters="sRGB">
<feFlood flood-opacity="0" result="BackgroundImageFix"/>
<feColorMatrix in="SourceAlpha" type="matrix" values="0 0 0 0 0 0 0 0 0 0 0 0 0 0 0 0 0 0 127 0" result="hardAlpha"/>
<feOffset dy="3.5"/>
<feGaussianBlur stdDeviation="2.75"/>
<feColorMatrix type="matrix" values="0 0 0 0 0 0 0 0 0 0 0 0 0 0 0 0 0 0 0.02 0"/>
<feBlend mode="normal" in2="BackgroundImageFix" result="effect1_dropShadow_154_2426"/>
<feBlend mode="normal" in="SourceGraphic" in2="effect1_dropShadow_154_2426" result="shape"/>
</filter>
</defs>
</svg>
