<svg width="34" height="35" viewBox="0 0 34 35" fill="none" xmlns="http://www.w3.org/2000/svg">
<rect width="33.2927" height="35" rx="12" fill="white"/>
<path d="M16.6469 8.49994C11.9205 8.49994 8.08594 12.5312 8.08594 17.4999C8.08594 22.4687 11.9205 26.4999 16.6469 26.4999C21.3733 26.4999 25.2079 22.4687 25.2079 17.4999C25.2079 12.5312 21.3733 8.49994 16.6469 8.49994ZM16.3794 22.7499C16.203 22.7499 16.0306 22.695 15.8839 22.5919C15.7373 22.4889 15.623 22.3425 15.5555 22.1712C15.488 21.9999 15.4703 21.8114 15.5047 21.6295C15.5392 21.4477 15.6241 21.2806 15.7488 21.1495C15.8735 21.0184 16.0324 20.9291 16.2054 20.893C16.3784 20.8568 16.5577 20.8753 16.7206 20.9463C16.8836 21.0173 17.0229 21.1374 17.1209 21.2916C17.2188 21.4458 17.2711 21.627 17.2711 21.8124C17.2711 22.0611 17.1772 22.2995 17.01 22.4753C16.8427 22.6512 16.6159 22.7499 16.3794 22.7499ZM17.8704 17.9687C17.1476 18.4787 17.0482 18.946 17.0482 19.3749C17.0482 19.549 16.9824 19.7159 16.8654 19.839C16.7483 19.962 16.5895 20.0312 16.424 20.0312C16.2584 20.0312 16.0996 19.962 15.9826 19.839C15.8655 19.7159 15.7997 19.549 15.7997 19.3749C15.7997 18.3479 16.2492 17.5313 17.1739 16.8784C18.0336 16.2718 18.5196 15.8874 18.5196 15.0423C18.5196 14.4676 18.2075 14.0312 17.5614 13.7082C17.4094 13.6323 17.0709 13.5582 16.6545 13.5634C16.1319 13.5704 15.7262 13.7017 15.4136 13.966C14.8241 14.4648 14.7742 15.0076 14.7742 15.0156C14.7702 15.1017 14.7502 15.1863 14.7152 15.2643C14.6801 15.3423 14.6308 15.4123 14.5701 15.4703C14.5093 15.5283 14.4383 15.5732 14.361 15.6023C14.2838 15.6315 14.2018 15.6443 14.1199 15.6402C14.0379 15.636 13.9575 15.6149 13.8833 15.5781C13.809 15.5413 13.7424 15.4895 13.6873 15.4256C13.6321 15.3617 13.5894 15.287 13.5617 15.2058C13.534 15.1246 13.5218 15.0385 13.5257 14.9523C13.5306 14.8384 13.606 13.8123 14.6302 12.946C15.1612 12.497 15.8367 12.2635 16.6367 12.2532C17.2029 12.2462 17.7349 12.347 18.0956 12.526C19.1751 13.0628 19.7681 13.9576 19.7681 15.0423C19.7681 16.6281 18.76 17.3401 17.8704 17.9687Z" fill="#7F9BB8"/>
</svg>
