<svg width="34" height="38" viewBox="0 0 34 38" fill="none" xmlns="http://www.w3.org/2000/svg">
<ellipse cx="16.6572" cy="17.1512" rx="16.6572" ry="17.1512" transform="matrix(-0.999753 0.0222295 0.0202242 0.999795 33.3057 2.96387)" fill="#D9D9D9"/>
<path d="M13.8513 27.1506V26.7159C13.8598 25.2244 13.9919 24.0355 14.2476 23.1491C14.5118 22.2628 14.8953 21.5469 15.3982 21.0014C15.901 20.456 16.5061 19.9616 17.2135 19.5185C17.7419 19.1776 18.2149 18.8239 18.6325 18.4574C19.0502 18.0909 19.3825 17.6861 19.6297 17.2429C19.8769 16.7912 20.0004 16.2884 20.0004 15.7344C20.0004 15.1463 19.8598 14.6307 19.5786 14.1875C19.2973 13.7443 18.9181 13.4034 18.4408 13.1648C17.972 12.9261 17.4521 12.8068 16.8811 12.8068C16.3271 12.8068 15.803 12.9304 15.3087 13.1776C14.8144 13.4162 14.4095 13.7741 14.0942 14.2514C13.7789 14.7202 13.6084 15.304 13.5828 16.0028H8.36692C8.40953 14.2983 8.81863 12.892 9.59419 11.7841C10.3698 10.6676 11.3968 9.83665 12.6752 9.29119C13.9536 8.73721 15.3641 8.46023 16.9067 8.46023C18.6027 8.46023 20.1027 8.74148 21.4067 9.30398C22.7107 9.85795 23.7334 10.6634 24.4749 11.7202C25.2164 12.777 25.5871 14.0511 25.5871 15.5426C25.5871 16.5398 25.4209 17.4261 25.0885 18.2017C24.7646 18.9687 24.3087 19.6506 23.7206 20.2472C23.1325 20.8352 22.4379 21.3679 21.6368 21.8452C20.9635 22.2457 20.4095 22.6634 19.9749 23.098C19.5487 23.5327 19.2291 24.0355 19.0161 24.6065C18.8115 25.1776 18.705 25.8807 18.6965 26.7159V27.1506H13.8513ZM16.3825 35.3324C15.5303 35.3324 14.8016 35.0341 14.1965 34.4375C13.5999 33.8324 13.3058 33.108 13.3144 32.2642C13.3058 31.429 13.5999 30.7131 14.1965 30.1165C14.8016 29.5199 15.5303 29.2216 16.3825 29.2216C17.1922 29.2216 17.9039 29.5199 18.5175 30.1165C19.1311 30.7131 19.4422 31.429 19.4507 32.2642C19.4422 32.8267 19.2931 33.3423 19.0033 33.8111C18.722 34.2713 18.3513 34.642 17.8911 34.9233C17.4308 35.196 16.928 35.3324 16.3825 35.3324Z" fill="#275F99"/>
</svg>
