<svg width="13" height="18" viewBox="0 0 13 18" fill="none" xmlns="http://www.w3.org/2000/svg">
<path d="M2.36328 0.0117188H5.76172C5.79737 0.0118198 5.83192 0.0271862 5.85742 0.0546875C5.88293 0.082268 5.89743 0.11987 5.89746 0.15918V5.73535C5.89752 6.24511 6.08543 6.73402 6.41992 7.09473C6.75445 7.45546 7.20816 7.65815 7.68164 7.6582H12.8525C12.8882 7.65828 12.9227 7.67371 12.9482 7.70117C12.9738 7.72869 12.9882 7.76641 12.9883 7.80566V15.2939C12.9882 15.967 12.7399 16.6122 12.2988 17.0879C11.8578 17.5635 11.26 17.831 10.6367 17.8311H2.36328C1.73997 17.831 1.14223 17.5635 0.701172 17.0879C0.260063 16.6122 0.0117965 15.967 0.0117188 15.2939V2.54883C0.0117457 1.8757 0.260044 1.23062 0.701172 0.754883C1.14224 0.279238 1.73994 0.0118201 2.36328 0.0117188ZM3.5459 12.7334C3.38577 12.7334 3.23208 12.802 3.11914 12.9238C3.00637 13.0455 2.9424 13.2101 2.94238 13.3818C2.94238 13.5537 3.00623 13.7191 3.11914 13.8408C3.23205 13.9625 3.38588 14.0312 3.5459 14.0312H9.4541C9.61412 14.0312 9.76795 13.9625 9.88086 13.8408C9.99377 13.7191 10.0576 13.5537 10.0576 13.3818C10.0576 13.2101 9.99363 13.0455 9.88086 12.9238C9.76792 12.802 9.61423 12.7334 9.4541 12.7334H3.5459ZM3.5459 9.54688C3.38577 9.54688 3.23208 9.61552 3.11914 9.7373C3.00633 9.85896 2.94249 10.0236 2.94238 10.1953C2.94238 10.3672 3.00623 10.5325 3.11914 10.6543C3.23207 10.7761 3.3858 10.8447 3.5459 10.8447H9.4541C9.61421 10.8447 9.76793 10.7761 9.88086 10.6543C9.99377 10.5325 10.0576 10.3672 10.0576 10.1953C10.0575 10.0236 9.99367 9.85896 9.88086 9.7373C9.76792 9.61552 9.61423 9.54688 9.4541 9.54688H3.5459Z" fill="white" stroke="#0075FF" stroke-width="0.0234375"/>
<path d="M7.09473 0.0126953C7.10802 0.0154722 7.12015 0.0230481 7.12988 0.0332031L12.9678 6.16016C12.9775 6.1704 12.9846 6.18392 12.9873 6.19824C12.9899 6.2123 12.9885 6.22701 12.9834 6.24023C12.9781 6.25369 12.9684 6.26542 12.957 6.27344C12.9457 6.28133 12.9324 6.28607 12.9189 6.28613H7.64941C7.48048 6.2861 7.31788 6.21541 7.19824 6.08984C7.07864 5.96425 7.01172 5.79305 7.01172 5.61523V0.0849609C7.01178 0.070368 7.01575 0.055981 7.02344 0.0439453C7.03109 0.0319848 7.0422 0.0230589 7.05469 0.0175781C7.06728 0.0121148 7.0814 0.00993082 7.09473 0.0126953Z" fill="white" stroke="#0075FF" stroke-width="0.0234375"/>
</svg>
