<svg width="46" height="46" viewBox="0 0 46 46" fill="none" xmlns="http://www.w3.org/2000/svg">
<g filter="url(#filter0_d_154_2459)">
<rect x="5.5" y="2" width="35" height="35" rx="12" fill="#1A1F37"/>
</g>
<path d="M18.8633 11.0117H22.2617C22.2974 11.0118 22.3319 11.0272 22.3574 11.0547C22.3829 11.0823 22.3974 11.1199 22.3975 11.1592V16.7354C22.3975 17.2451 22.5854 17.734 22.9199 18.0947C23.2544 18.4555 23.7082 18.6582 24.1816 18.6582H29.3525C29.3882 18.6583 29.4227 18.6737 29.4482 18.7012C29.4738 18.7287 29.4882 18.7664 29.4883 18.8057V26.2939C29.4882 26.967 29.2399 27.6122 28.7988 28.0879C28.3578 28.5635 27.76 28.831 27.1367 28.8311H18.8633C18.24 28.831 17.6422 28.5635 17.2012 28.0879C16.7601 27.6122 16.5118 26.967 16.5117 26.2939V13.5488C16.5117 12.8757 16.76 12.2306 17.2012 11.7549C17.6422 11.2792 18.2399 11.0118 18.8633 11.0117ZM20.0459 23.7334C19.8858 23.7334 19.7321 23.802 19.6191 23.9238C19.5064 24.0455 19.4424 24.2101 19.4424 24.3818C19.4424 24.5537 19.5062 24.7191 19.6191 24.8408C19.7321 24.9625 19.8859 25.0312 20.0459 25.0312H25.9541C26.1141 25.0312 26.2679 24.9625 26.3809 24.8408C26.4938 24.7191 26.5576 24.5537 26.5576 24.3818C26.5576 24.2101 26.4936 24.0455 26.3809 23.9238C26.2679 23.802 26.1142 23.7334 25.9541 23.7334H20.0459ZM20.0459 20.5469C19.8858 20.5469 19.7321 20.6155 19.6191 20.7373C19.5063 20.859 19.4425 21.0236 19.4424 21.1953C19.4424 21.3672 19.5062 21.5325 19.6191 21.6543C19.7321 21.7761 19.8858 21.8447 20.0459 21.8447H25.9541C26.1142 21.8447 26.2679 21.7761 26.3809 21.6543C26.4938 21.5325 26.5576 21.3672 26.5576 21.1953C26.5575 21.0236 26.4937 20.859 26.3809 20.7373C26.2679 20.6155 26.1142 20.5469 25.9541 20.5469H20.0459Z" fill="white" stroke="#0075FF" stroke-width="0.0234375"/>
<path d="M23.5947 11.0127C23.608 11.0155 23.6201 11.023 23.6299 11.0332L29.4678 17.1602C29.4775 17.1704 29.4846 17.1839 29.4873 17.1982C29.4899 17.2123 29.4885 17.227 29.4834 17.2402C29.4781 17.2537 29.4684 17.2654 29.457 17.2734C29.4457 17.2813 29.4324 17.2861 29.4189 17.2861H24.1494C23.9805 17.2861 23.8179 17.2154 23.6982 17.0898C23.5786 16.9642 23.5117 16.793 23.5117 16.6152V11.085C23.5118 11.0704 23.5157 11.056 23.5234 11.0439C23.5311 11.032 23.5422 11.0231 23.5547 11.0176C23.5673 11.0121 23.5814 11.0099 23.5947 11.0127Z" fill="white" stroke="#0075FF" stroke-width="0.0234375"/>
<defs>
<filter id="filter0_d_154_2459" x="-4.76837e-07" y="-2.38419e-07" width="46" height="46" filterUnits="userSpaceOnUse" color-interpolation-filters="sRGB">
<feFlood flood-opacity="0" result="BackgroundImageFix"/>
<feColorMatrix in="SourceAlpha" type="matrix" values="0 0 0 0 0 0 0 0 0 0 0 0 0 0 0 0 0 0 127 0" result="hardAlpha"/>
<feOffset dy="3.5"/>
<feGaussianBlur stdDeviation="2.75"/>
<feColorMatrix type="matrix" values="0 0 0 0 0 0 0 0 0 0 0 0 0 0 0 0 0 0 0.02 0"/>
<feBlend mode="normal" in2="BackgroundImageFix" result="effect1_dropShadow_154_2459"/>
<feBlend mode="normal" in="SourceGraphic" in2="effect1_dropShadow_154_2459" result="shape"/>
</filter>
</defs>
</svg>
