<svg width="46" height="46" viewBox="0 0 46 46" fill="none" xmlns="http://www.w3.org/2000/svg">
<g filter="url(#filter0_d_154_2445)">
<rect x="5.5" y="2" width="34.999" height="35" rx="12" fill="#1A1F37"/>
</g>
<path d="M23.5 15.1872C22.7936 15.1872 22.103 15.412 21.5156 15.8332C20.9283 16.2544 20.4705 16.8531 20.2001 17.5535C19.9298 18.2539 19.8591 19.0247 19.9969 19.7682C20.1347 20.5118 20.4749 21.1948 20.9744 21.7309C21.4739 22.267 22.1103 22.632 22.8032 22.7799C23.496 22.9278 24.2142 22.8519 24.8668 22.5618C25.5195 22.2717 26.0773 21.7804 26.4698 21.15C26.8623 20.5196 27.0717 19.7785 27.0717 19.0204C27.0689 18.0047 26.6917 17.0315 26.0225 16.3133C25.3533 15.5951 24.4464 15.1903 23.5 15.1872ZM31.2114 19.0204C31.2095 19.3786 31.1851 19.7362 31.1382 20.0908L33.312 21.9173C33.4067 22.0012 33.4705 22.1185 33.492 22.2483C33.5135 22.378 33.4913 22.5117 33.4294 22.6255L31.373 26.4357C31.3105 26.5485 31.2129 26.634 31.0974 26.6772C30.982 26.7204 30.856 26.7186 30.7417 26.6719L28.1857 25.5699C27.6534 26.0097 27.071 26.3748 26.4525 26.6561L26.0703 29.5684C26.0489 29.6988 25.986 29.8173 25.8923 29.9034C25.7985 29.9896 25.6798 30.0382 25.5564 30.0408H21.4436C21.3224 30.0383 21.2057 29.9918 21.1123 29.9088C21.019 29.8259 20.9546 29.7114 20.9297 29.5842L20.5475 26.6719C19.9273 26.3938 19.3444 26.0282 18.8143 25.5847L16.2583 26.6868C16.144 26.7335 16.0181 26.7354 15.9026 26.6923C15.7872 26.6492 15.6896 26.5637 15.627 26.451L13.5706 22.6413C13.5087 22.5275 13.4865 22.3938 13.508 22.2641C13.5295 22.1343 13.5933 22.0171 13.688 21.9332L15.8618 20.1066C15.8155 19.7467 15.791 19.3838 15.7886 19.0204C15.7905 18.6622 15.8149 18.3046 15.8618 17.95L13.688 16.1235C13.5933 16.0396 13.5295 15.9223 13.508 15.7925C13.4865 15.6628 13.5087 15.5291 13.5706 15.4153L15.627 11.6051C15.6895 11.4923 15.7871 11.4068 15.9026 11.3636C16.018 11.3204 16.144 11.3223 16.2583 11.3689L18.8143 12.4709C19.3466 12.0311 19.929 11.666 20.5475 11.3847L20.9297 8.47244C20.9511 8.34199 21.014 8.22356 21.1077 8.13739C21.2015 8.05122 21.3202 8.00266 21.4436 8H25.5564C25.6776 8.00253 25.7943 8.04906 25.8877 8.13199C25.981 8.21493 26.0454 8.32937 26.0703 8.45663L26.4525 11.3689C27.0735 11.6468 27.6571 12.0124 28.1879 12.4561L30.7417 11.354C30.856 11.3074 30.9819 11.3054 31.0974 11.3485C31.2128 11.3916 31.3104 11.4771 31.373 11.5898L33.4294 15.4C33.4913 15.5138 33.5135 15.6475 33.492 15.7772C33.4705 15.9069 33.4067 16.0242 33.312 16.1081L31.1382 17.9347C31.1845 18.2945 31.209 18.6572 31.2114 19.0204Z" fill="white"/>
<defs>
<filter id="filter0_d_154_2445" x="-4.76837e-07" y="-2.38419e-07" width="45.999" height="46" filterUnits="userSpaceOnUse" color-interpolation-filters="sRGB">
<feFlood flood-opacity="0" result="BackgroundImageFix"/>
<feColorMatrix in="SourceAlpha" type="matrix" values="0 0 0 0 0 0 0 0 0 0 0 0 0 0 0 0 0 0 127 0" result="hardAlpha"/>
<feOffset dy="3.5"/>
<feGaussianBlur stdDeviation="2.75"/>
<feColorMatrix type="matrix" values="0 0 0 0 0 0 0 0 0 0 0 0 0 0 0 0 0 0 0.02 0"/>
<feBlend mode="normal" in2="BackgroundImageFix" result="effect1_dropShadow_154_2445"/>
<feBlend mode="normal" in="SourceGraphic" in2="effect1_dropShadow_154_2445" result="shape"/>
</filter>
</defs>
</svg>
