<svg width="20" height="23" viewBox="0 0 20 23" fill="none" xmlns="http://www.w3.org/2000/svg">
<path d="M10 7.18722C9.29358 7.18722 8.60302 7.41203 8.01565 7.83323C7.42828 8.25443 6.97048 8.85309 6.70014 9.55351C6.42981 10.2539 6.35908 11.0247 6.49689 11.7682C6.63471 12.5118 6.97488 13.1948 7.4744 13.7309C7.97392 14.267 8.61034 14.632 9.30319 14.7799C9.99604 14.9278 10.7142 14.8519 11.3668 14.5618C12.0195 14.2717 12.5773 13.7804 12.9698 13.15C13.3623 12.5196 13.5717 11.7785 13.5717 11.0204C13.5689 10.0047 13.1917 9.03149 12.5225 8.31329C11.8533 7.59508 10.9464 7.19026 10 7.18722ZM17.7114 11.0204C17.7095 11.3786 17.6851 11.7362 17.6382 12.0908L19.812 13.9173C19.9067 14.0012 19.9705 14.1185 19.992 14.2483C20.0135 14.378 19.9913 14.5117 19.9294 14.6255L17.873 18.4357C17.8105 18.5485 17.7129 18.634 17.5974 18.6772C17.482 18.7204 17.356 18.7186 17.2417 18.6719L14.6857 17.5699C14.1534 18.0097 13.571 18.3748 12.9525 18.6561L12.5703 21.5684C12.5489 21.6988 12.486 21.8173 12.3923 21.9034C12.2985 21.9896 12.1798 22.0382 12.0564 22.0408H7.94357C7.82242 22.0383 7.70565 21.9918 7.61232 21.9088C7.51899 21.8259 7.45461 21.7114 7.42969 21.5842L7.04751 18.6719C6.42731 18.3938 5.84444 18.0282 5.31433 17.5847L2.7583 18.6868C2.64404 18.7335 2.51811 18.7354 2.40265 18.6923C2.28718 18.6492 2.18958 18.5637 2.127 18.451L0.0705681 14.6413C0.00866889 14.5275 -0.0135068 14.3938 0.00800384 14.2641C0.0295145 14.1343 0.0933097 14.0171 0.187989 13.9332L2.36184 12.1066C2.31547 11.7467 2.29101 11.3838 2.28862 11.0204C2.29047 10.6622 2.31494 10.3046 2.36184 9.94999L0.187989 8.12348C0.0933097 8.03958 0.0295145 7.92228 0.00800384 7.79255C-0.0135068 7.66281 0.00866889 7.5291 0.0705681 7.4153L2.127 3.60511C2.18951 3.49232 2.28708 3.40679 2.40255 3.36359C2.51803 3.32038 2.64399 3.32226 2.7583 3.36889L5.31433 4.47093C5.84657 4.03108 6.42902 3.66604 7.04751 3.3847L7.42969 0.47244C7.45108 0.341992 7.51401 0.223563 7.60774 0.137393C7.70147 0.0512226 7.82018 0.00265867 7.94357 0H12.0564C12.1776 0.00253064 12.2943 0.0490606 12.3877 0.131994C12.481 0.214928 12.5454 0.329366 12.5703 0.456628L12.9525 3.36889C13.5735 3.64678 14.1571 4.01241 14.6879 4.45608L17.2417 3.35404C17.356 3.30736 17.4819 3.30541 17.5974 3.34853C17.7128 3.39165 17.8104 3.47707 17.873 3.58978L19.9294 7.39996C19.9913 7.51377 20.0135 7.64748 19.992 7.77722C19.9705 7.90695 19.9067 8.02425 19.812 8.10815L17.6382 9.93466C17.6845 10.2945 17.709 10.6572 17.7114 11.0204Z" fill="white"/>
</svg>
